<?xml version="1.0" encoding="utf-8"?>
<!-- Generator: Adobe Illustrator 23.1.0, SVG Export Plug-In . SVG Version: 6.00 Build 0)  -->
<svg version="1.1" id="Layer_1" xmlns="http://www.w3.org/2000/svg" xmlns:xlink="http://www.w3.org/1999/xlink" x="0px" y="0px"
	 viewBox="0 0 800 800" style="enable-background:new 0 0 800 800;" xml:space="preserve">
<style type="text/css">
	.st0{fill:#488FCD;}
</style>
<g>
	<path class="st0" d="M652.04,537.48c0,0-205.34-95.35-473.23-6.71l31.01,61.85C209.82,592.63,401.94,487.41,652.04,537.48z"/>
	<circle class="st0" cx="366.64" cy="458.92" r="40.99"/>
	<circle class="st0" cx="517.01" cy="458.92" r="40.99"/>
	<g>
		<path class="st0" d="M484.67,236.7l-84.1,46.26c12.32,14.22,30.87,16.87,49.75,6.48c8.48-4.67,14.49-10.19,18.72-17.06
			c4.26-6.91,12.73-9.94,20.37-7.2l0,0c9.77,3.51,14.48,14.98,9.42,24.05c-6.74,12.08-17.73,22.46-32.89,30.79
			c-42.82,23.55-86.16,10.73-107.34-27.77c-21.31-38.74-8.35-82.22,29.41-102.99c36.37-20.01,78.48-9.95,101.38,31.67
			c0.02,0.03,0.03,0.06,0.05,0.09C492.49,226.61,490.24,233.64,484.67,236.7z M388.07,261.33l61.01-33.56
			c-11.53-14.97-29.1-19.1-45.21-10.23C387.52,226.53,381.47,243.33,388.07,261.33z"/>
	</g>
	<g>
		<path class="st0" d="M431.79,406.32H288.13L244.9,219.49c-10.5-45.37-50.37-77.06-96.94-77.06V88.82
			c71.66,0,133,48.77,149.16,118.58l33.63,145.31h101.04c69.98,0,126.72-56.73,126.72-126.72v-55.43h-42.17
			c-29.61,0-53.61-24-53.61-53.61l0,0h149.38v109.04C612.12,325.58,531.38,406.32,431.79,406.32z"/>
	</g>
</g>
<g>
	<g>
		<path class="st0" d="M168.17,637.97h64.75v16.06h-45.67v27.57h38.69v16.06h-38.69v31.85h47.31v16.06h-66.39V637.97z"/>
		<path class="st0" d="M255.02,664.76h15.53l1.45,10.92h0.53c7.24-7.04,15.46-12.9,26.52-12.9c17.31,0,24.87,11.71,24.87,32.11
			v50.67h-18.95v-48.23c0-13.29-3.82-18.29-12.57-18.29c-7.11,0-11.78,3.49-18.42,10.07v56.46h-18.95V664.76z"/>
		<path class="st0" d="M341.82,705.22c0-26.91,18.29-42.44,38.43-42.44s38.43,15.53,38.43,42.44c0,26.78-18.29,42.31-38.43,42.31
			S341.82,732,341.82,705.22z M399.2,705.22c0-16.19-7.11-26.98-18.95-26.98s-18.95,10.79-18.95,26.98
			c0,16.19,7.11,26.85,18.95,26.85S399.2,721.41,399.2,705.22z"/>
		<path class="st0" d="M437.46,664.76h15.53l1.45,11.02h0.53c6.84-7.14,14.67-13,24.81-13c11.84,0,18.59,5.4,22.31,14.48
			c7.73-8.22,15.73-14.48,25.99-14.48c17.04,0,24.94,11.71,24.94,32.11v50.67h-18.95v-48.23c0-13.29-3.95-18.29-12.44-18.29
			c-5.13,0-10.66,3.29-16.91,10.07v56.46h-18.95v-48.23c0-13.29-3.95-18.29-12.44-18.29c-5,0-10.66,3.29-16.91,10.07v56.46h-18.95
			V664.76z"/>
		<path class="st0" d="M570.93,777.08l3.49-14.67c1.55,0.46,3.88,1.12,5.79,1.12c8.49,0,13.42-5.79,16.12-13.88l1.51-5.07
			l-31.78-79.82h19.21l13.95,39.61c2.44,7.17,4.74,15.13,7.11,22.83h0.66c2.04-7.5,4.08-15.46,6.19-22.83l12.04-39.61h18.29
			l-29.22,84.49c-6.71,18.19-15.2,29.48-32.83,29.48C577.05,778.72,573.9,778.07,570.93,777.08z"/>
	</g>
</g>
</svg>
