<?xml version="1.0" encoding="utf-8"?>
<!-- Generator: Adobe Illustrator 23.1.0, SVG Export Plug-In . SVG Version: 6.00 Build 0)  -->
<svg version="1.1" id="Layer_1" xmlns="http://www.w3.org/2000/svg" xmlns:xlink="http://www.w3.org/1999/xlink" x="0px" y="0px"
	 viewBox="0 0 548 553" style="enable-background:new 0 0 548 553;" xml:space="preserve">
<style type="text/css">
	.st0{fill:#D3E8EE;}
	.st1{fill:#3059A8;}
	.st2{fill:#22449C;}
	.st3{fill:#2F71B8;}
	.st4{fill:#F26133;}
	.st5{fill:#143643;}
	.st6{fill:#0A121A;}
	.st7{fill:#FFFFFF;}
	.st8{opacity:0.3;fill:#FFFFFF;enable-background:new    ;}
	.st9{fill:#D53F2E;}
	.st10{fill:#345565;}
	.st11{fill:#F7974C;}
	.st12{fill:#2D94D1;}
	.st13{fill:#FFC829;}
	.st14{fill:#F9F8F8;}
	.st15{fill:#F8A996;}
	.st16{fill:#F58B6D;}
	.st17{fill:#D85C49;}
	.st18{fill:#EC3C24;}
	.st19{fill:#3A93D0;}
	.st20{fill:#F2F2F2;}
	.st21{fill:#D8D9D8;}
	.st22{fill:#FFFFFF;stroke:#0099CD;stroke-width:6;stroke-miterlimit:10;enable-background:new    ;}
	.st23{fill:none;stroke:#2F71B8;stroke-width:3;stroke-miterlimit:10;}
</style>
<path class="st0" d="M520.64,520.96c0,7.48-109.34,13.54-244.2,13.54c-134.88,0-244.2-6.06-244.2-13.54s109.34-13.54,244.2-13.54
	C411.31,507.42,520.64,513.49,520.64,520.96z"/>
<g>
	<path class="st0" d="M249.2,161.25c-19.32-70.1-106.4-92.68-156.31-40.29c-0.72,0.75-1.43,1.52-2.15,2.3
		C19.2,201.03,52.99,392.69,202.31,441.27c149.32,48.58,304.62-40.13,313.35-119.42s-60.16-104.22-167.07-82.04
		C288.2,252.33,261.23,204.89,249.2,161.25z"/>
	<path class="st0" d="M379.72,177.9c-19.34,5.98-22.38,24.27-5.37,34.58c5.62,3.41,13.31,5.82,23.81,6.09
		c40.04,1.05,58.4-19.16,39.59-39.42C426.14,166.63,398.88,171.97,379.72,177.9z"/>
	<path class="st0" d="M76.45,361.97c-15.4-13.14-32.48-5.91-32.08,13.98c0.14,6.57,2.21,14.36,7.6,23.38
		c20.56,34.38,47.46,39.06,54.5,12.32C110.81,395.14,91.71,374.99,76.45,361.97z"/>
	<path class="st0" d="M483.99,397.27c-5.67,8-1.26,17.51,8.48,17.87c3.22,0.11,6.94-0.79,11.09-3.46
		c15.83-10.2,16.78-24.69,3.3-29.31C498.54,379.51,489.61,389.33,483.99,397.27z"/>
	<path class="st0" d="M183.83,68.64c-7.25-1.39-12.39,4.58-9.61,11.36c0.91,2.24,2.7,4.5,5.82,6.53
		c11.91,7.68,22.14,3.82,21.12-6.86C200.52,73.1,191.02,70.02,183.83,68.64z"/>
</g>
<g>
	<g>
		<path class="st1" d="M88.29,136.84c4.77,16.01,20.75,15.51,20.42,28.51c-0.34,13,7.83,22.86,19.06,20.49
			c11.23-2.39,19.35-4.77,24.48,8.16c5.12,12.93,21.45,19.39,27.92,9.18c1.61-2.54,3.35-5.29,5.05-7.99
			c0.47-0.74,0.93-1.47,1.38-2.19c0.1-0.17,0.22-0.33,0.32-0.5c6.85-10.86,4.58-25.27-5.51-33.21c-4.08-3.21-8.97-5.02-14.51-3.4
			c-17.35,5.1-11.1-12.35-21.44-19.73c-11.9-8.51-22.12,1.12-30.27-6.13C103.82,119.97,83.52,120.84,88.29,136.84z"/>
		<g>
			<path class="st2" d="M108.98,143.77l76.21,51.42c0.47-0.74,0.93-1.47,1.38-2.19l-76.14-51.38c-0.59-0.4-1.41-0.24-1.81,0.35
				C108.24,142.56,108.39,143.37,108.98,143.77z"/>
		</g>
	</g>
	<g>
		<path class="st1" d="M467.97,374.59c-6.58,15.56-22.59,13.26-23.71,26.36c-1.11,13.1-10.43,22.1-21.45,18.45
			c-11.02-3.66-18.92-6.96-25.52,5.46c-6.6,12.42-23.73,17.09-29.08,6.1c-1.34-2.73-2.78-5.69-4.18-8.6
			c-0.39-0.79-0.77-1.59-1.14-2.37c-0.09-0.18-0.17-0.35-0.26-0.54c-5.66-11.68-1.77-25.91,9.26-32.75
			c4.47-2.78,9.58-4.05,14.96-1.78c16.86,7.08,12.54-11.17,23.76-17.43c12.92-7.21,22.11,3.6,31.12-2.77
			C454.26,355.88,474.55,359.03,467.97,374.59z"/>
		<g>
			<path class="st2" d="M446.39,379.23l-82.36,43.15c-0.39-0.79-0.77-1.59-1.14-2.37l82.28-43.11c0.64-0.33,1.44-0.09,1.77,0.55
				C447.27,378.1,447.03,378.88,446.39,379.23z"/>
		</g>
	</g>
	<g>
		<path class="st3" d="M439.55,308.78c1.9,15.66-12.14,21.24-6.96,32.36s1.82,22.74-8.8,24.9c-10.62,2.16-18.55,3.16-18.13,16.28
			c0.42,13.12-11.28,24.87-20.72,18.45c-2.36-1.59-4.89-3.33-7.39-5.02c-0.67-0.47-1.36-0.93-2.02-1.38
			c-0.16-0.1-0.31-0.21-0.47-0.32c-10.01-6.84-13.47-20.15-7.72-30.83c2.33-4.32,5.88-7.73,11.3-8.39
			c16.94-2.1,4.97-14.87,11.15-25.15c7.11-11.84,19.58-7.35,23.92-16.69C419.76,300,437.66,293.12,439.55,308.78z"/>
		<g>
			<path class="st1" d="M424.23,322.56l-46.65,73.19c-0.67-0.47-1.36-0.93-2.02-1.38l46.62-73.13c0.37-0.57,1.12-0.74,1.69-0.38
				C424.42,321.23,424.59,321.99,424.23,322.56z"/>
		</g>
	</g>
	<g>
		<path class="st3" d="M113.44,76.06c-1.98,16.34,12.67,22.16,7.26,33.76s-1.9,23.72,9.18,25.97c11.08,2.25,19.35,3.29,18.91,16.98
			s11.78,25.94,21.62,19.25c2.45-1.66,5.1-3.46,7.69-5.24c0.71-0.48,1.42-0.97,2.11-1.44c0.16-0.11,0.32-0.22,0.48-0.33
			c10.45-7.13,14.05-21.02,8.05-32.16c-2.44-4.5-6.14-8.06-11.78-8.76c-17.67-2.19-5.18-15.51-11.63-26.24
			c-7.42-12.36-20.42-7.66-24.95-17.41C134.09,66.9,115.42,59.73,113.44,76.06z"/>
		<g>
			<path class="st1" d="M129.42,90.44l48.68,76.36c0.71-0.48,1.42-0.97,2.11-1.44l-48.63-76.29c-0.38-0.59-1.17-0.77-1.76-0.39
				C129.22,89.06,129.05,89.84,129.42,90.44z"/>
		</g>
	</g>
	<path class="st4" d="M462.31,90.8c18.3-7.63,34.22-18.21,25.39-24.56c-8.84-6.36-35.9,12.39-48.42,34.47l-6.06,6.49
		c9.41-15.94,12.16-38.95,4.02-43.32c-8.08-4.34-8.53,11.15-6.57,25.36c1.49,10.81-0.01,18.25-1.15,21.93l-28.6,30.66
		c14.83-25.28,19.13-61.61,6.25-68.52c-12.83-6.89-13.52,17.69-10.43,40.24c2.34,17.05,0.01,28.79-1.79,34.69l-5.7,6.12
		c0.9,1.15,1.82,2.31,2.73,3.45L426,121.33c4.07-1.03,9.96-1.87,17.62-1.36c14.31,0.96,29.74-0.56,24.84-8.32
		c-4.25-6.73-21.77-4.44-36.29,3.06l11.76-12.62C448.27,98.8,454.41,94.1,462.31,90.8z"/>
	<path class="st4" d="M92.32,352c-19-5.67-35.94-14.53-27.81-21.77c8.13-7.25,36.99,8.56,51.75,29.21l6.7,5.82
		c-11.02-14.86-16.17-37.46-8.54-42.67c7.59-5.17,9.65,10.19,9.19,24.53c-0.34,10.92,1.92,18.14,3.44,21.69l31.66,27.51
		c-17.39-23.58-25.47-59.26-13.4-67.5c12.04-8.2,15.31,16.17,14.58,38.93c-0.55,17.19,3.01,28.63,5.41,34.3l6.31,5.49
		c-0.78,1.25-1.57,2.48-2.36,3.72l-37.66-32.72c-4.16-0.59-10.09-0.82-17.66,0.49c-14.14,2.46-29.63,2.56-25.57-5.67
		c3.52-7.15,21.18-6.69,36.4-0.75l-13.02-11.32C107.11,358.48,100.51,354.44,92.32,352z"/>
</g>
<g>
	<g>
		<path class="st5" d="M392.32,121.23v378.03c0,11.86-9.6,21.46-21.46,21.46H182.62c-5.96,0-11.34-2.42-15.23-6.33
			c-3.85-3.88-6.23-9.23-6.23-15.11V121.23c0-11.86,9.6-21.46,21.46-21.46h188.24c3.5,0,6.81,0.83,9.73,2.33
			C387.55,105.64,392.32,112.88,392.32,121.23z"/>
		<path class="st6" d="M392.32,121.23v378.03c0,11.86-9.6,21.46-21.46,21.46H182.62c-5.96,0-11.34-2.42-15.23-6.33l213.2-412.28
			C387.55,105.64,392.32,112.88,392.32,121.23z"/>
	</g>
	<g>
		<path class="st6" d="M160.49,251.82h-0.48c-3.69,0-6.69-3-6.69-6.69v-36.56c0-3.69,3-6.69,6.69-6.69h0.48
			c0.38,0,0.67,0.3,0.67,0.67v48.6C161.16,251.52,160.86,251.82,160.49,251.82z"/>
		<path class="st6" d="M392.82,251.82h0.48c3.69,0,6.69-3,6.69-6.69v-36.56c0-3.69-3-6.69-6.69-6.69h-0.48
			c-0.38,0-0.67,0.3-0.67,0.67v48.6C392.15,251.52,392.45,251.82,392.82,251.82z"/>
		<path class="st6" d="M160.49,308.54h-0.48c-3.69,0-6.69-3-6.69-6.69v-36.57c0-3.69,3-6.69,6.69-6.69h0.48
			c0.38,0,0.67,0.3,0.67,0.67v48.6C161.16,308.23,160.86,308.54,160.49,308.54z"/>
	</g>
	<g>
		<path class="st7" d="M381.62,122.15v376.17c0,6.45-5.24,11.68-11.68,11.68H183.54c-4.6,0-8.57-2.66-10.48-6.53
			c0-0.01-0.01-0.02-0.01-0.03c-0.77-1.54-1.19-3.28-1.19-5.12V122.15c0-6.45,5.24-11.68,11.68-11.68h186.39
			c2.02,0,3.93,0.51,5.59,1.42c0.01,0,0.01,0.01,0.02,0.01C379.16,113.89,381.62,117.74,381.62,122.15z"/>
		<path class="st8" d="M381.62,122.15v376.17c0,6.45-5.24,11.68-11.68,11.68H183.54c-4.6,0-8.57-2.66-10.48-6.53
			c0-0.01-0.01-0.02-0.01-0.03l202.48-391.55c0.01,0,0.01,0.01,0.02,0.01C379.16,113.89,381.62,117.74,381.62,122.15z"/>
		<g>
			<path class="st7" d="M408.91,170.27v27.41h-264.1v-27.41l0,0c31.83-5.78,41.99-59.79,41.99-59.79h180.11
				C366.92,110.47,377.07,164.49,408.91,170.27z"/>
			<rect x="144.81" y="170.27" class="st0" width="264.1" height="27.41"/>
			<path class="st4" d="M220.35,110.47c0,0-10.16,54.02-41.99,59.79v27.41h-33.53v-27.41c31.84-5.77,41.99-59.79,41.99-59.79
				S220.35,110.47,220.35,110.47z"/>
			<path class="st4" d="M408.92,170.27v27.41h-33.54v-27.41c-31.84-5.77-41.99-59.79-41.99-59.79h33.54
				C366.93,110.47,377.08,164.49,408.92,170.27z"/>
			<path class="st4" d="M253.3,170.45v27.23h-31.43l-0.79-27.41c19.99-15.33,21.56-59.79,21.56-59.79h20.72
				C264.34,142.62,253.3,170.45,253.3,170.45z"/>
			<path class="st4" d="M328.87,170.27l-0.79,27.41h-31.43v-27.23c0,0-11.02-27.84-10.06-59.98h20.72
				C307.31,110.47,308.89,154.93,328.87,170.27z"/>
			<rect x="144.81" y="170.27" class="st9" width="33.53" height="27.41"/>
			<polygon class="st9" points="408.92,170.27 408.92,197.68 375.38,197.68 375.38,170.27 408.91,170.27 			"/>
			<path class="st9" d="M253.38,170.27c-0.05,0.13-0.07,0.19-0.07,0.19v27.23h-31.43l-0.79-27.41h32.28V170.27z"/>
			<path class="st9" d="M328.87,170.27l-0.79,27.41h-31.43v-27.23c0,0-0.02-0.07-0.07-0.19h32.28V170.27z"/>
		</g>
	</g>
	<g>
		<path class="st5" d="M331.41,129.38H222.07c-5.61,0-10.21-4.6-10.21-10.21v-1.34c0-5.61,4.6-10.21,10.21-10.21h109.34
			c5.61,0,10.21,4.6,10.21,10.21v1.34C341.62,124.78,337.02,129.38,331.41,129.38z"/>
		<path class="st6" d="M307.72,119.75h-72.74c-1.38,0-2.52-1.13-2.52-2.52v-0.33c0-1.38,1.13-2.52,2.52-2.52h72.74
			c1.38,0,2.52,1.13,2.52,2.52v0.33C310.24,118.62,309.1,119.75,307.72,119.75z"/>
		<path class="st10" d="M329.18,116.89c0,1.77-1.44,3.21-3.21,3.21s-3.21-1.44-3.21-3.21c0-1.77,1.44-3.21,3.21-3.21
			S329.18,115.12,329.18,116.89z"/>
	</g>
</g>
<g>
	<g>
		<path class="st4" d="M469.61,252.78H355.29c-1.66,0-3-1.34-3-3v-18.87c0-1.66,1.34-3,3-3h114.32c1.66,0,3,1.34,3,3v18.87
			C472.62,251.44,471.27,252.78,469.61,252.78z"/>
		<path class="st11" d="M459.95,246.9h-0.87c-3.66,0-6.62-2.96-6.62-6.62v-0.87c0-3.66,2.96-6.62,6.62-6.62h0.87
			c3.66,0,6.62,2.96,6.62,6.62v0.87C466.57,243.94,463.61,246.9,459.95,246.9z"/>
		<g>
			<path class="st11" d="M440.67,235.46H361.3c-0.7,0-1.26-0.56-1.26-1.26v-0.16c0-0.7,0.56-1.26,1.26-1.26h79.36
				c0.7,0,1.26,0.56,1.26,1.26v0.16C441.92,234.9,441.35,235.46,440.67,235.46z"/>
			<path class="st11" d="M440.67,241.18H361.3c-0.7,0-1.26-0.56-1.26-1.26v-0.16c0-0.7,0.56-1.26,1.26-1.26h79.36
				c0.7,0,1.26,0.56,1.26,1.26v0.16C441.92,240.62,441.35,241.18,440.67,241.18z"/>
			<path class="st11" d="M440.67,246.9H361.3c-0.7,0-1.26-0.56-1.26-1.26v-0.16c0-0.7,0.56-1.26,1.26-1.26h79.36
				c0.7,0,1.26,0.56,1.26,1.26v0.16C441.92,246.34,441.35,246.9,440.67,246.9z"/>
		</g>
	</g>
	<g>
		<path class="st3" d="M470.22,289.28H355.9c-1.66,0-3-1.34-3-3v-18.87c0-1.66,1.34-3,3-3h114.32c1.66,0,3,1.34,3,3v18.87
			C473.21,287.94,471.88,289.28,470.22,289.28z"/>
		<path class="st12" d="M459.95,283.89h-0.87c-3.66,0-6.62-2.96-6.62-6.62v-0.87c0-3.66,2.96-6.62,6.62-6.62h0.87
			c3.66,0,6.62,2.96,6.62,6.62v0.87C466.57,280.93,463.61,283.89,459.95,283.89z"/>
		<g>
			<g>
				<path class="st12" d="M440.67,272.46H361.3c-0.7,0-1.26-0.56-1.26-1.26v-0.16c0-0.7,0.56-1.26,1.26-1.26h79.36
					c0.7,0,1.26,0.56,1.26,1.26v0.16C441.92,271.9,441.35,272.46,440.67,272.46z"/>
				<path class="st12" d="M440.67,278.18H361.3c-0.7,0-1.26-0.56-1.26-1.26v-0.16c0-0.7,0.56-1.26,1.26-1.26h79.36
					c0.7,0,1.26,0.56,1.26,1.26v0.16C441.92,277.62,441.35,278.18,440.67,278.18z"/>
				<path class="st12" d="M440.67,283.91H361.3c-0.7,0-1.26-0.56-1.26-1.26v-0.16c0-0.7,0.56-1.26,1.26-1.26h79.36
					c0.7,0,1.26,0.56,1.26,1.26v0.16C441.92,283.35,441.35,283.91,440.67,283.91z"/>
			</g>
		</g>
	</g>
</g>
<g>
	<g>
		<g>
			<path class="st3" d="M437.96,180.19c0-3.58,2.9-6.48,6.48-6.48c3.58,0,6.48,2.9,6.48,6.48c0,3.58-2.9,6.48-6.48,6.48
				C440.86,186.68,437.96,183.77,437.96,180.19z M439.99,180.19c0,2.46,2,4.45,4.45,4.45c2.46,0,4.45-2,4.45-4.45
				c0-2.46-2-4.45-4.45-4.45C441.98,175.75,439.99,177.75,439.99,180.19z"/>
		</g>
		<g>
			<path class="st3" d="M449.46,152.68c0-3.58,2.9-6.48,6.48-6.48c3.58,0,6.48,2.9,6.48,6.48c0,3.58-2.9,6.48-6.48,6.48
				C452.36,159.16,449.46,156.24,449.46,152.68z M451.49,152.68c0,2.46,2,4.45,4.45,4.45c2.46,0,4.45-2,4.45-4.45
				c0-2.46-2-4.45-4.45-4.45C453.49,148.23,451.49,150.22,451.49,152.68z"/>
		</g>
		<g>
			<g>
				<g>
					<g>
						<g>
							<path class="st4" d="M430.53,205.97c0.56,0,1.02-0.46,1.02-1.02v-4.48c0-0.56-0.46-1.02-1.02-1.02s-1.02,0.46-1.02,1.02v4.48
								C429.51,205.53,429.97,205.97,430.53,205.97z"/>
						</g>
					</g>
					<g>
						<g>
							<path class="st4" d="M430.53,213.83c0.56,0,1.02-0.46,1.02-1.02v-4.48c0-0.56-0.46-1.02-1.02-1.02s-1.02,0.46-1.02,1.02v4.48
								C429.51,213.37,429.97,213.83,430.53,213.83z"/>
						</g>
					</g>
				</g>
				<g>
					<g>
						<g>
							<path class="st4" d="M424.23,207.65h4.02c0.56,0,1.02-0.46,1.02-1.02c0-0.56-0.46-1.02-1.02-1.02h-4.02
								c-0.56,0-1.02,0.46-1.02,1.02C423.21,207.21,423.67,207.65,424.23,207.65z"/>
						</g>
					</g>
					<g>
						<g>
							<path class="st4" d="M432.79,207.65h4.02c0.56,0,1.02-0.46,1.02-1.02c0-0.56-0.46-1.02-1.02-1.02h-4.02
								c-0.56,0-1.02,0.46-1.02,1.02C431.77,207.21,432.23,207.65,432.79,207.65z"/>
						</g>
					</g>
				</g>
			</g>
		</g>
		<g>
			<g>
				<g>
					<g>
						<path class="st4" d="M477.2,173.84c0.56,0,1.02-0.46,1.02-1.02v-4.48c0-0.56-0.46-1.02-1.02-1.02c-0.56,0-1.02,0.46-1.02,1.02
							v4.48C476.19,173.39,476.63,173.84,477.2,173.84z"/>
					</g>
					<g>
						<path class="st4" d="M477.2,181.69c0.56,0,1.02-0.46,1.02-1.02v-4.48c0-0.56-0.46-1.02-1.02-1.02c-0.56,0-1.02,0.46-1.02,1.02
							v4.48C476.19,181.23,476.63,181.69,477.2,181.69z"/>
					</g>
				</g>
				<g>
					<g>
						<path class="st4" d="M470.9,175.53h4.02c0.56,0,1.02-0.46,1.02-1.02s-0.46-1.02-1.02-1.02h-4.02c-0.56,0-1.02,0.46-1.02,1.02
							C469.89,175.07,470.34,175.53,470.9,175.53z"/>
					</g>
					<g>
						<path class="st4" d="M479.47,175.53h4.02c0.56,0,1.02-0.46,1.02-1.02s-0.46-1.02-1.02-1.02h-4.02c-0.56,0-1.02,0.46-1.02,1.02
							S478.91,175.53,479.47,175.53z"/>
					</g>
				</g>
			</g>
		</g>
	</g>
	<g>
		<g>
			<path class="st3" d="M72.13,187.43c0-3.58,2.9-6.48,6.48-6.48s6.48,2.9,6.48,6.48c0,3.58-2.9,6.48-6.48,6.48
				S72.13,191.01,72.13,187.43z M74.16,187.43c0,2.46,2,4.45,4.45,4.45c2.45,0,4.45-2,4.45-4.45c0-2.46-2-4.45-4.45-4.45
				C76.16,182.98,74.16,184.98,74.16,187.43z"/>
		</g>
		<g>
			<path class="st4" d="M48.55,235.68c0-3.58,2.9-6.48,6.48-6.48s6.48,2.9,6.48,6.48s-2.9,6.48-6.48,6.48S48.55,239.26,48.55,235.68
				z M50.59,235.68c0,2.46,2,4.45,4.45,4.45c2.46,0,4.45-2,4.45-4.45c0-2.46-2-4.45-4.45-4.45
				C52.58,231.24,50.59,233.24,50.59,235.68z"/>
		</g>
		<g>
			<g>
				<g>
					<path class="st3" d="M72.13,215.78c0.56,0,1.02-0.46,1.02-1.02v-4.48c0-0.56-0.46-1.02-1.02-1.02c-0.56,0-1.02,0.46-1.02,1.02
						v4.48C71.11,215.32,71.57,215.78,72.13,215.78z"/>
				</g>
				<g>
					<path class="st3" d="M72.13,223.64c0.56,0,1.02-0.46,1.02-1.02v-4.48c0-0.56-0.46-1.02-1.02-1.02c-0.56,0-1.02,0.46-1.02,1.02
						v4.48C71.11,223.18,71.57,223.64,72.13,223.64z"/>
				</g>
			</g>
			<g>
				<g>
					<path class="st3" d="M65.83,217.46h4.02c0.56,0,1.02-0.46,1.02-1.02c0-0.56-0.46-1.02-1.02-1.02h-4.02
						c-0.56,0-1.02,0.46-1.02,1.02C64.81,217.02,65.27,217.46,65.83,217.46z"/>
				</g>
				<g>
					<path class="st3" d="M74.39,217.46h4.02c0.56,0,1.02-0.46,1.02-1.02c0-0.56-0.46-1.02-1.02-1.02h-4.02
						c-0.56,0-1.02,0.46-1.02,1.02C73.37,217.02,73.83,217.46,74.39,217.46z"/>
				</g>
			</g>
		</g>
		<g>
			<g>
				<g>
					<g>
						<path class="st4" d="M60.34,170.57c0.56,0,1.02-0.46,1.02-1.02v-4.48c0-0.56-0.46-1.02-1.02-1.02s-1.02,0.46-1.02,1.02v4.48
							C59.32,170.11,59.78,170.57,60.34,170.57z"/>
					</g>
					<g>
						<path class="st4" d="M60.34,178.42c0.56,0,1.02-0.46,1.02-1.02v-4.48c0-0.56-0.46-1.02-1.02-1.02s-1.02,0.46-1.02,1.02v4.48
							C59.32,177.96,59.78,178.42,60.34,178.42z"/>
					</g>
				</g>
				<g>
					<g>
						<path class="st4" d="M54.04,172.25h4.02c0.56,0,1.02-0.46,1.02-1.02s-0.46-1.02-1.02-1.02h-4.02c-0.56,0-1.02,0.46-1.02,1.02
							C53.02,171.79,53.48,172.25,54.04,172.25z"/>
					</g>
					<g>
						<path class="st4" d="M62.6,172.25h4.02c0.56,0,1.02-0.46,1.02-1.02s-0.46-1.02-1.02-1.02H62.6c-0.56,0-1.02,0.46-1.02,1.02
							C61.59,171.79,62.04,172.25,62.6,172.25z"/>
					</g>
				</g>
			</g>
		</g>
	</g>
</g>
<g id="DESIGNED_BY_FREEPIK">
</g>
<g>
	<path class="st13" d="M344.57,237.25l0.22,83.51c0.01,4.67-3.76,8.47-8.42,8.48l-132.46,0.34c-4.66,0.01-8.46-3.76-8.47-8.43
		l-0.22-83.51c-0.01-4.34,3.5-7.87,7.84-7.89l133.62-0.35C341.03,229.4,344.56,232.91,344.57,237.25z"/>
	<path class="st3" d="M344.57,237.25l0.22,83.51c0.01,4.67-3.76,8.47-8.42,8.48l-132.46,0.34c-4.66,0.01-8.46-3.76-8.47-8.43
		l-0.22-83.51c-0.01-4.34,3.5-7.87,7.84-7.89l133.62-0.35C341.03,229.4,344.56,232.91,344.57,237.25z"/>
	<g>
		<path class="st13" d="M231.67,263.4l-19.63,0.05c-2.32,0.01-4.21-1.87-4.21-4.19l-0.03-10.97c-0.01-2.32,1.87-4.21,4.19-4.21
			l19.63-0.05c2.32-0.01,4.21,1.87,4.21,4.19l0.03,10.97C235.86,261.51,233.99,263.39,231.67,263.4z"/>
		<g>
			<path class="st14" d="M206.85,281.13l-1.15,0.68c-0.03,0.02-0.09,0.05-0.14,0.05c-0.1,0-0.2-0.06-0.24-0.14
				c-0.08-0.15-0.04-0.31,0.1-0.38l1.57-0.96c0.13-0.07,0.31-0.02,0.38,0.1c0.03,0.07,0.05,0.14,0.04,0.21l0.02,7.47
				c0,0.15-0.12,0.28-0.28,0.28c-0.15,0-0.28-0.13-0.28-0.28L206.85,281.13z"/>
			<path class="st14" d="M209.42,287.93l3.79-3.44c0.45-0.42,0.69-0.98,0.69-1.56c0-0.5-0.19-1-0.55-1.39
				c-0.41-0.45-0.98-0.68-1.55-0.68c-0.51,0-1.01,0.18-1.42,0.54l-0.39,0.36c-0.12,0.12-0.3,0.11-0.4-0.01
				c-0.12-0.12-0.11-0.3,0.01-0.4l0.39-0.37c0.51-0.45,1.16-0.69,1.8-0.69c0.71,0,1.43,0.28,1.95,0.87c0.48,0.51,0.7,1.15,0.7,1.78
				c0,0.72-0.29,1.44-0.87,1.98l-3.25,2.95l3.85-0.01c0.15,0,0.28,0.13,0.28,0.29c0,0.15-0.13,0.28-0.28,0.28l-4.53,0.01h-0.05
				c-0.08,0-0.16-0.02-0.21-0.08C209.31,288.22,209.31,288.05,209.42,287.93z"/>
			<path class="st14" d="M221.18,280.78l-2.1,2.17c0.51,0.1,1,0.35,1.4,0.74c0.54,0.53,0.8,1.24,0.81,1.95
				c0,0.71-0.26,1.42-0.81,1.95c-0.53,0.54-1.24,0.82-1.95,0.82c-0.7,0-1.41-0.26-1.94-0.81c-0.12-0.1-0.12-0.29,0-0.41
				c0.1-0.12,0.29-0.12,0.41,0c0.43,0.42,0.98,0.62,1.54,0.62c0.56,0,1.11-0.21,1.54-0.63c0.43-0.43,0.64-0.99,0.64-1.55
				c0-0.56-0.21-1.11-0.64-1.53c-0.42-0.43-0.98-0.64-1.54-0.63c-0.09,0-0.17-0.05-0.23-0.12h-0.01c-0.12-0.12-0.12-0.3,0-0.42
				l2.02-2.08l-3.11,0.01c-0.16,0-0.29-0.13-0.29-0.29c0-0.16,0.13-0.29,0.29-0.29l3.8-0.01c0.16,0,0.29,0.13,0.29,0.29
				c0,0.05-0.01,0.09-0.03,0.13C221.23,280.72,221.2,280.75,221.18,280.78z"/>
			<path class="st14" d="M228.02,286.71l-4.4,0.01h-0.01h-0.02c-0.06,0-0.13-0.01-0.17-0.06c-0.13-0.09-0.14-0.28-0.04-0.39
				l4.69-5.87l0.01-0.01c0.1-0.13,0.27-0.14,0.4-0.04c0.05,0.03,0.07,0.09,0.09,0.14c0,0.02,0.01,0.04,0.01,0.05v0.04l0.01,5.58
				l0.55,0c0.16,0,0.29,0.13,0.29,0.28c0,0.15-0.13,0.28-0.29,0.28l-0.55,0l0,1.39c0,0.15-0.13,0.28-0.29,0.28
				c-0.15,0-0.28-0.13-0.28-0.28L228.02,286.71z M228.02,286.15l-0.01-4.76l-3.83,4.77L228.02,286.15z"/>
			<path class="st14" d="M238.21,287.55c-0.12-0.12-0.12-0.3,0-0.41c0.12-0.12,0.3-0.12,0.42,0c0.43,0.42,0.98,0.63,1.54,0.62
				c0.56,0,1.1-0.21,1.53-0.64c0.43-0.43,0.64-0.98,0.64-1.54c0-0.57-0.21-1.13-0.63-1.54c-0.42-0.42-0.98-0.63-1.54-0.62
				c-0.57,0-1.11,0.21-1.54,0.64c-0.12,0.12-0.3,0.12-0.41,0c-0.04-0.02-0.06-0.06-0.07-0.09v-0.01c-0.01-0.01-0.01-0.02-0.01-0.03
				c-0.01-0.02-0.01-0.06-0.01-0.09c0-0.01,0.01-0.04,0.01-0.06l0.39-3.28c0-0.09,0.05-0.16,0.12-0.21
				c0.05-0.05,0.12-0.07,0.19-0.07l3.79-0.01c0.16,0,0.29,0.13,0.29,0.29c0,0.17-0.13,0.29-0.29,0.29l-3.54,0.01l-0.28,2.42
				c0.42-0.25,0.89-0.37,1.38-0.38c0.71,0,1.41,0.25,1.94,0.8c0.55,0.53,0.8,1.23,0.81,1.95c0,0.7-0.25,1.42-0.8,1.95
				c-0.53,0.52-1.25,0.8-1.95,0.81C239.46,288.35,238.75,288.08,238.21,287.55z"/>
			<path class="st14" d="M245.94,281.98c0.56-0.99,1.49-1.72,2.84-1.77c0.15-0.01,0.28,0.11,0.29,0.27c0,0.16-0.13,0.29-0.28,0.3
				c-1.14,0.05-1.86,0.63-2.37,1.48c-0.28,0.48-0.46,1.05-0.58,1.63c0.49-0.56,1.21-0.92,2.01-0.92c1.5,0,2.7,1.2,2.7,2.68
				c0,1.49-1.19,2.69-2.69,2.69c-1.45,0-2.64-1.14-2.69-2.58c-0.02-0.17-0.02-0.35-0.02-0.53
				C245.17,284.13,245.39,282.94,245.94,281.98z M245.76,285.7c0,0.06,0.01,0.1,0.02,0.15c0,0.04,0,0.06-0.01,0.08
				c0.14,1.03,1.04,1.83,2.11,1.83c1.19,0,2.14-0.96,2.13-2.12c0-1.16-0.96-2.11-2.14-2.11c-1.16,0-2.11,0.96-2.11,2.12V285.7z"/>
			<path class="st14" d="M253.53,287.92l2.99-7.14l-3.93,0.01c-0.15,0-0.28-0.13-0.28-0.28c0-0.15,0.13-0.28,0.28-0.28l4.3-0.01
				c0.06-0.01,0.12-0.01,0.17,0.01c0.07,0.03,0.13,0.1,0.15,0.17c0.01,0.04,0.02,0.06,0.02,0.09c0,0.06-0.01,0.1-0.05,0.15
				l-3.13,7.49c-0.05,0.1-0.15,0.17-0.26,0.17c-0.05,0-0.07,0-0.12-0.02C253.55,288.23,253.48,288.06,253.53,287.92z"/>
			<path class="st14" d="M261.55,280.16c0.93,0,1.7,0.75,1.7,1.68c0,0.57-0.28,1.06-0.69,1.37c0.97,0.39,1.64,1.34,1.64,2.44
				c0,1.46-1.17,2.64-2.63,2.64c-1.45,0-2.64-1.17-2.64-2.63c0-1.09,0.67-2.05,1.62-2.44c-0.41-0.31-0.68-0.8-0.68-1.37
				C259.86,280.92,260.6,280.16,261.55,280.16z M261.57,287.74c1.16,0,2.08-0.93,2.07-2.08c0-1.14-0.92-2.08-2.08-2.07
				c-1.15,0-2.08,0.95-2.07,2.09C259.48,286.81,260.42,287.74,261.57,287.74z M261.55,282.99c0.63-0.01,1.14-0.53,1.14-1.15
				c0-0.63-0.51-1.13-1.14-1.12c-0.63,0-1.13,0.5-1.12,1.13C260.42,282.48,260.93,282.99,261.55,282.99z"/>
			<path class="st14" d="M276,280.12c1.39,0,2.52,1.03,2.68,2.36c0.01,0.02,0.01,0.03,0.02,0.06c0.01,0.22,0.02,0.45,0.03,0.7
				c0,1.08-0.23,2.28-0.77,3.24c-0.56,0.97-1.51,1.72-2.84,1.77h-0.01c-0.16,0-0.29-0.12-0.29-0.27c0-0.16,0.12-0.29,0.28-0.3
				c1.13-0.05,1.87-0.63,2.37-1.48c0.28-0.49,0.47-1.05,0.58-1.63c-0.49,0.56-1.21,0.9-2.02,0.9c-1.48,0-2.69-1.18-2.69-2.68
				C273.32,281.33,274.52,280.13,276,280.12z M278.13,282.79c0-1.16-0.95-2.1-2.13-2.1c-1.16,0-2.11,0.95-2.11,2.11
				c0,1.19,0.96,2.11,2.12,2.11C277.2,284.91,278.14,283.97,278.13,282.79z"/>
			<path class="st14" d="M280.77,284.18c0-1.09,0.27-2.09,0.77-2.85c0.5-0.72,1.21-1.22,2.03-1.23c0.82,0,1.54,0.5,2.04,1.21
				c0.49,0.75,0.79,1.75,0.8,2.84c0,1.09-0.3,2.09-0.78,2.84c-0.5,0.73-1.21,1.23-2.03,1.24c-0.83,0-1.54-0.5-2.04-1.23
				C281.05,286.27,280.77,285.27,280.77,284.18z M281.34,284.18c0,1,0.27,1.89,0.69,2.52c0.42,0.62,0.98,0.97,1.56,0.97
				c0.58,0,1.13-0.36,1.55-0.98c0.42-0.63,0.69-1.52,0.69-2.52c0-1-0.28-1.89-0.7-2.52c-0.43-0.64-0.98-0.97-1.56-0.97
				c-0.58,0-1.14,0.34-1.55,0.98C281.6,282.28,281.34,283.18,281.34,284.18z"/>
			<path class="st14" d="M290.15,280.91l-1.15,0.68c-0.03,0.02-0.09,0.05-0.14,0.05c-0.1,0-0.2-0.06-0.24-0.14
				c-0.08-0.15-0.04-0.31,0.1-0.38l1.57-0.96c0.13-0.07,0.31-0.02,0.38,0.1c0.03,0.07,0.05,0.14,0.03,0.21l0.02,7.47
				c0,0.15-0.11,0.28-0.28,0.28c-0.15,0-0.28-0.13-0.28-0.28L290.15,280.91z"/>
			<path class="st14" d="M292.73,287.71l3.79-3.44c0.45-0.42,0.69-0.98,0.69-1.56c0-0.5-0.19-1-0.55-1.39
				c-0.41-0.45-0.98-0.68-1.55-0.68c-0.51,0-1.01,0.18-1.42,0.54l-0.39,0.36c-0.12,0.12-0.3,0.1-0.4-0.01
				c-0.12-0.12-0.11-0.3,0.01-0.4l0.39-0.37c0.51-0.45,1.16-0.69,1.8-0.69c0.71,0,1.43,0.28,1.95,0.87c0.48,0.51,0.7,1.15,0.7,1.78
				c0,0.72-0.29,1.44-0.87,1.98l-3.25,2.95l3.85-0.01c0.15,0,0.28,0.13,0.28,0.29c0,0.15-0.13,0.28-0.28,0.28l-4.53,0.01l-0.05,0
				c-0.08,0-0.16-0.02-0.21-0.08C292.61,288,292.61,287.83,292.73,287.71z"/>
			<path class="st14" d="M311.45,280.54l-2.1,2.17c0.51,0.1,1,0.35,1.4,0.74c0.54,0.53,0.8,1.24,0.81,1.95
				c0,0.71-0.26,1.42-0.81,1.95c-0.53,0.54-1.24,0.82-1.95,0.82c-0.7,0-1.41-0.26-1.94-0.81c-0.12-0.1-0.12-0.29,0-0.41
				c0.1-0.12,0.29-0.12,0.41,0c0.43,0.42,0.98,0.62,1.54,0.62c0.56,0,1.11-0.21,1.54-0.63c0.43-0.43,0.64-0.99,0.64-1.55
				c0-0.56-0.21-1.11-0.64-1.53c-0.42-0.43-0.98-0.64-1.54-0.63c-0.09,0-0.17-0.05-0.23-0.12h-0.01c-0.12-0.12-0.12-0.3,0-0.42
				l2.02-2.08l-3.11,0.01c-0.16,0-0.29-0.13-0.29-0.29c0-0.16,0.13-0.29,0.29-0.29l3.8-0.01c0.16,0,0.29,0.13,0.29,0.29
				c0,0.05-0.01,0.09-0.03,0.13C311.5,280.48,311.47,280.52,311.45,280.54z"/>
			<path class="st14" d="M318.29,286.47l-4.4,0.01h-0.01h-0.02c-0.06,0-0.13-0.01-0.17-0.06c-0.13-0.09-0.14-0.28-0.04-0.39
				l4.69-5.87l0.01-0.01c0.1-0.13,0.27-0.14,0.4-0.04c0.05,0.03,0.07,0.09,0.09,0.14c0,0.02,0.01,0.03,0.01,0.05v0.03l0.01,5.58
				l0.55,0c0.16,0,0.29,0.13,0.29,0.28c0,0.15-0.13,0.28-0.29,0.28l-0.55,0l0,1.39c0,0.15-0.13,0.28-0.29,0.28
				c-0.15,0-0.28-0.13-0.28-0.28L318.29,286.47z M318.29,285.92l-0.01-4.76l-3.83,4.77L318.29,285.92z"/>
			<path class="st14" d="M321.52,287.34c-0.12-0.12-0.12-0.3,0-0.41c0.12-0.12,0.3-0.12,0.42,0c0.43,0.42,0.98,0.63,1.54,0.62
				c0.56,0,1.1-0.21,1.53-0.64c0.43-0.43,0.64-0.98,0.64-1.54c0-0.57-0.21-1.13-0.63-1.54c-0.42-0.42-0.98-0.63-1.54-0.62
				c-0.57,0-1.11,0.21-1.54,0.64c-0.12,0.12-0.3,0.12-0.41,0c-0.03-0.02-0.06-0.06-0.07-0.09v-0.01c-0.01-0.01-0.01-0.02-0.01-0.03
				c-0.01-0.02-0.01-0.06-0.01-0.09c0-0.01,0.01-0.03,0.01-0.06l0.39-3.28c0-0.09,0.05-0.16,0.12-0.21
				c0.05-0.05,0.12-0.07,0.19-0.07l3.79-0.01c0.16,0,0.29,0.13,0.29,0.29c0,0.17-0.13,0.29-0.29,0.29l-3.54,0.01l-0.28,2.42
				c0.42-0.25,0.89-0.37,1.38-0.38c0.71,0,1.41,0.25,1.94,0.8c0.55,0.53,0.8,1.23,0.81,1.95c0,0.7-0.25,1.42-0.8,1.95
				c-0.53,0.52-1.25,0.81-1.95,0.81C322.76,288.13,322.06,287.87,321.52,287.34z"/>
			<path class="st14" d="M329.25,281.76c0.56-0.99,1.49-1.72,2.84-1.77c0.15-0.01,0.28,0.12,0.29,0.27c0,0.16-0.13,0.29-0.28,0.3
				c-1.14,0.05-1.86,0.63-2.37,1.48c-0.28,0.48-0.46,1.05-0.58,1.63c0.49-0.56,1.21-0.92,2.01-0.92c1.5,0,2.7,1.2,2.7,2.68
				c0,1.49-1.19,2.69-2.69,2.69c-1.45,0-2.64-1.14-2.69-2.58c-0.02-0.17-0.02-0.35-0.02-0.53
				C328.48,283.91,328.69,282.73,329.25,281.76z M329.06,285.48c0,0.06,0.01,0.1,0.02,0.15c0,0.03,0,0.06-0.01,0.08
				c0.14,1.03,1.04,1.83,2.11,1.83c1.19,0,2.14-0.96,2.13-2.12c0-1.16-0.96-2.11-2.14-2.11c-1.16,0-2.11,0.96-2.11,2.12V285.48z"/>
		</g>
		
			<rect x="207.94" y="302.29" transform="matrix(1 -2.595717e-03 2.595717e-03 1 -0.7884 0.6328)" class="st0" width="70.92" height="3.49"/>
		
			<rect x="207.96" y="310.06" transform="matrix(1 -2.594994e-03 2.594994e-03 1 -0.8083 0.6059)" class="st0" width="50.21" height="3.49"/>
		
			<rect x="269.07" y="243.88" transform="matrix(1 -2.595191e-03 2.595191e-03 1 -0.6365 0.745)" class="st0" width="35.37" height="3.49"/>
		<g id="u5Zjqx_1_">
			<g>
				<path class="st7" d="M330.31,258.73c-0.22-0.22-0.44-0.44-0.66-0.67c-0.13-0.13-0.25-0.25-0.38-0.38
					c1.73-1.79,2.66-3.91,2.66-6.4c0-2.49-0.92-4.62-2.67-6.42c0.12-0.12,0.25-0.24,0.38-0.36c0.22-0.22,0.44-0.44,0.66-0.66
					c0.01-0.01,0.01-0.01,0.01-0.02c0.01,0,0.01,0,0.02,0c0.01,0.02,0.03,0.03,0.04,0.05c0.25,0.28,0.51,0.55,0.74,0.84
					c0.49,0.6,0.9,1.25,1.24,1.94c0.4,0.82,0.7,1.68,0.87,2.58c0.08,0.43,0.12,0.86,0.17,1.29c0.02,0.15,0.02,1.1,0.02,1.13
					c-0.02,0.29-0.03,0.59-0.07,0.88c-0.09,0.81-0.28,1.6-0.56,2.36c-0.2,0.55-0.45,1.09-0.75,1.6c-0.31,0.54-0.66,1.05-1.07,1.53
					c-0.2,0.24-0.42,0.47-0.63,0.7C330.32,258.73,330.32,258.73,330.31,258.73z"/>
				<path class="st7" d="M327.18,246.98c0.35-0.35,0.69-0.7,1.04-1.05c1.18,1.2,1.92,2.61,2.15,4.28c0.34,2.49-0.42,4.62-2.13,6.43
					c-0.36-0.36-0.7-0.7-1.05-1.06c1.15-1.19,1.78-2.62,1.78-4.3C328.96,249.61,328.34,248.18,327.18,246.98z"/>
				<path class="st7" d="M326.13,254.53c-0.35-0.35-0.69-0.69-1.04-1.05c0.59-0.61,0.91-1.34,0.91-2.2c0-0.86-0.32-1.59-0.92-2.2
					c0.35-0.35,0.7-0.7,1.04-1.04C327.87,249.7,328.01,252.69,326.13,254.53z"/>
			</g>
		</g>
	</g>
</g>
<g>
	<g>
		<path class="st15" d="M148.14,376.04c-0.33,6.2-0.71,12.87-1.1,19.83c-2.32,40.7-5.44,90.9-6.39,110.45l-7.49,0.49
			c0,0-4.4-52.91-4.38-71.1c0.01-7.57-0.7-19.23-1.66-32.2c-0.65-8.86-1.43-18.33-2.17-27.51L148.14,376.04z"/>
		<path class="st16" d="M148.14,376.04c-0.33,6.2-0.78,14.12-1.18,21.07c-4.62,2.65-12.2,5.14-19.83,6.38
			c-0.65-8.86-1.43-18.33-2.17-27.51L148.14,376.04z"/>
		<g>
			<g>
				<path class="st4" d="M136.1,502.27c0,0,4.44-0.97,5.65-0.89c1.21,0.08,8.92,9.51,11.63,10.17c4.92,1.19,4.57,8.93,1.54,9.18
					c-8.77,0.72-23.53-3.62-23.53-3.62s-0.94-9.99-0.19-13.08C131.93,500.94,133.62,503.08,136.1,502.27z"/>
				<g>
					<g>
						<path class="st7" d="M142.94,511.08c-0.16,0.02-0.32-0.01-0.47-0.11c-0.26-0.19-0.32-0.57-0.13-0.85
							c0.07-0.09,1.65-2.21,3.51-2.88c2.48-0.9,4.15,0.64,4.23,0.7c0.24,0.23,0.25,0.62,0.02,0.86c-0.23,0.24-0.62,0.25-0.86,0.02
							c-0.05-0.05-1.21-1.09-2.98-0.45c-1.52,0.55-2.94,2.45-2.95,2.47C143.22,510.96,143.09,511.04,142.94,511.08z"/>
					</g>
					<g>
						<path class="st7" d="M141.35,509.17c-0.16,0.02-0.32-0.01-0.46-0.11c-0.26-0.19-0.32-0.57-0.13-0.85
							c0.07-0.09,1.65-2.21,3.51-2.88c2.49-0.9,4.15,0.64,4.23,0.7c0.24,0.23,0.25,0.62,0.02,0.86c-0.23,0.24-0.62,0.25-0.86,0.02
							c-0.05-0.05-1.21-1.09-2.98-0.45c-1.53,0.56-2.94,2.45-2.95,2.47C141.63,509.06,141.5,509.14,141.35,509.17z"/>
					</g>
					<g>
						<path class="st7" d="M145.2,512.73c-0.16,0.02-0.32-0.01-0.46-0.11c-0.26-0.19-0.32-0.57-0.13-0.85
							c0.07-0.09,1.65-2.21,3.51-2.89c2.48-0.9,4.15,0.64,4.23,0.7c0.24,0.23,0.25,0.62,0.02,0.86c-0.23,0.24-0.62,0.25-0.86,0.02
							c-0.05-0.05-1.21-1.09-2.98-0.45c-1.53,0.56-2.94,2.45-2.95,2.47C145.49,512.63,145.35,512.71,145.2,512.73z"/>
					</g>
				</g>
			</g>
		</g>
	</g>
	<g>
		<path class="st15" d="M120.68,375.97c-0.74,9.19-1.52,18.67-2.17,27.53c-0.01,0.07-0.01,0.13-0.01,0.19
			c-0.03,0.41-0.06,0.82-0.09,1.23c-0.9,12.39-1.57,23.48-1.55,30.76c0.02,18.2-4.38,71.1-4.38,71.1l-8.7-0.57
			c-0.87-18.12-3.19-62.58-5.09-101.38c-0.02-0.46-0.05-0.91-0.07-1.37c-0.02-0.38-0.03-0.75-0.06-1.13
			c-0.46-9.33-0.88-18.29-1.26-26.43L120.68,375.97z"/>
		<path class="st16" d="M120.68,375.97c-0.74,9.19-1.52,18.67-2.17,27.53c-0.01,0.07-0.01,0.13-0.01,0.19
			c-5.62,0.38-14.03-0.14-19.93-1.36c-0.46-9.33-0.88-18.29-1.26-26.43L120.68,375.97z"/>
		<g>
			<g>
				<path class="st4" d="M104.98,504.71c0,0-2-2.81-3.64-2.72c-1.63,0.08-14.45,9.82-18.78,10.55s-3.57,3.93-2.81,5.57
					c0.75,1.65,34.43,0.15,34.43,0.15s1.14-9.99,0.11-13.08C113.28,502.09,108.34,505.51,104.98,504.71z"/>
				<g>
					<g>
						<path class="st7" d="M97.87,511.54c0.15,0.05,0.32,0.03,0.47-0.05c0.3-0.16,0.4-0.53,0.24-0.82c-0.06-0.1-1.33-2.41-3.08-3.35
							c-2.33-1.25-4.21,0.05-4.29,0.1c-0.27,0.19-0.33,0.57-0.15,0.85c0.19,0.27,0.57,0.33,0.85,0.15c0.05-0.03,1.35-0.9,3.02-0.02
							c1.43,0.75,2.57,2.84,2.58,2.86C97.6,511.4,97.72,511.5,97.87,511.54z"/>
					</g>
					<g>
						<path class="st7" d="M99.71,509.89c0.15,0.05,0.32,0.03,0.47-0.05c0.3-0.16,0.4-0.53,0.24-0.82c-0.06-0.1-1.33-2.41-3.08-3.35
							c-2.33-1.25-4.21,0.05-4.29,0.1c-0.27,0.19-0.33,0.57-0.15,0.85c0.19,0.27,0.57,0.33,0.85,0.15c0.05-0.03,1.35-0.9,3.02-0.02
							c1.44,0.77,2.57,2.84,2.58,2.86C99.44,509.74,99.56,509.84,99.71,509.89z"/>
					</g>
					<g>
						<path class="st7" d="M95.39,512.87c0.15,0.05,0.32,0.03,0.47-0.05c0.3-0.16,0.4-0.53,0.24-0.82c-0.06-0.1-1.33-2.41-3.08-3.35
							c-2.33-1.25-4.21,0.05-4.29,0.1c-0.27,0.19-0.33,0.57-0.15,0.85c0.19,0.27,0.57,0.33,0.85,0.15c0.05-0.03,1.35-0.9,3.02-0.02
							c1.44,0.77,2.57,2.84,2.58,2.86C95.13,512.72,95.25,512.82,95.39,512.87z"/>
					</g>
				</g>
			</g>
		</g>
	</g>
	<path class="st5" d="M94.87,266.25c6.22,5.52,13.51,3.05,22.81-1.68c9.29-4.72,3.34,4.56,12.45,6.15
		c9.11,1.58,8.05-20.98,8.67-32.25c0.39-7.07,3.19-15.96,3.19-19.54v-0.05c0.05-0.59,0.08-1.19,0.08-1.77
		c0.07-8.59-5.22-24.25-23.82-21.76c0,0-15.43,1.76-17.19,16.85c0,0-0.73,6.96-1.22,12c-1.38,14.27-6.64,6.84-4.95,24.22
		C95.43,254.18,87.59,259.8,94.87,266.25z"/>
	<g>
		<g>
			<path class="st9" d="M151.44,255.11c0,0,3.29,27.93,7.04,41.3c0,0,5.34-2.49,12.32-5.86c7.58-3.66,18.47-10.33,18.47-10.33
				l2.76,6.63c0,0-28.13,26.56-37.46,28.07c-9.32,1.51-15.03-31.87-15.03-31.87L151.44,255.11z"/>
			<path class="st15" d="M188.71,280.99c0,0-0.78-3.7,0.88-6.21c1.66-2.5,4.18-7.2,7.15-8.17c2.48-0.82-1.18,3.36-1.29,6.01
				c0,0,3.68-0.46,6.34-1.33c2.34-0.75,6.96-1.7,9.11-2.13c0.58-0.11,0.96,0.63,0.51,1.02c-0.73,0.63-2.26,1.43-5.42,2.2
				c0,0,7.71-1.46,8.51-0.27c0.8,1.18-8.87,2.82-8.87,2.82s7.5-0.45,7.69,0.73c0.11,0.72-7.66,2.36-7.66,2.36s7.09,0.19,5.37,1.31
				c-0.5,0.33-14.23,1.87-19.01,7.52C192.04,286.84,188.83,283.52,188.71,280.99z"/>
		</g>
		<g>
			<g>
				<path class="st1" d="M183.86,283.16c-0.38,0.32-0.77,0.65-1.15,0.97c-0.95-0.35-1.91-0.46-2.88-0.31
					c-0.73,0.11-1.47,0.37-2.24,0.75c-3,1.55-4.95,4.58-6.18,8.35c-1.9,5.81-2.09,13.35-1.73,19.88c0.43,7.77,1.58,13.62,1.6,13.78
					l-1.36,0.15c-0.11-0.58-1.1-5.64-1.58-12.74c-0.42-6.25-0.37-13.65,1.25-19.74c1.28-4.86,3.56-8.89,7.36-10.86
					c1.99-1.03,3.96-1.23,5.86-0.63C183.19,282.87,183.53,283,183.86,283.16z"/>
				<path class="st1" d="M198.75,314.41l-1.33,0.25c-0.03-0.19-3.45-15.57-8.85-24.61c0.46-0.55,0.74-0.66,1.11-1.01
					C195.37,298.2,198.59,313.58,198.75,314.41z"/>
			</g>
			<g>
				<path class="st3" d="M184,283.37c-0.42,0.25-0.96,0.57-1.29,0.78c0.01,0,0.01,0.01,0.02,0.01c-0.02,0-0.03,0.01-0.05,0.01
					c-0.63,0.13-1.26,0.35-1.91,0.7c-1.86,0.96-3.33,2.5-4.46,4.45c-3.04,5.18-3.74,13.19-3.57,20.52
					c0.21,9.19,1.78,17.32,1.82,17.49l-1.33,0.26c-0.14-0.66-1.53-7.9-1.85-16.39c-0.25-6.8,0.19-14.39,2.54-20.09
					c1.31-3.17,3.2-5.75,5.9-7.26c0.1-0.07,0.22-0.13,0.33-0.18c0.89-0.47,1.79-0.75,2.68-0.89c0.53-0.08,1.45,0.09,1.97,0.14
					C184.63,283.05,184.32,283.17,184,283.37z"/>
				<path class="st3" d="M201.94,314.67l-1.33,0.25c-0.03-0.22-3.64-18.19-10.06-26.69c0.47-0.47,0.54-0.49,1.01-0.93
					C198.32,295.96,201.77,313.78,201.94,314.67z"/>
			</g>
			<polygon class="st1" points="220.65,365.31 218.45,367.72 178.41,380.79 168.47,327.23 170.73,325.15 171.44,325.73 
				198.49,312.04 216.34,361.84 			"/>
			<polygon class="st3" points="170.67,324.83 200.69,309.64 220.65,365.31 180.62,378.39 			"/>
		</g>
	</g>
	<g>
		<g>
			<g>
				<path class="st9" d="M42.39,335.74c-0.35,0.15-0.7,0.32-1.04,0.53c-3.69,2.18-5.74,6.34-6.73,11.26
					c-1.27,6.17-0.89,13.56-0.13,19.78c0.88,7.07,2.15,12.06,2.29,12.63l1.35-0.23c-0.03-0.15-1.51-5.92-2.38-13.66
					c-0.73-6.49-0.98-14.04,0.59-19.94c0.89-3.36,2.38-6.2,4.7-8c0.22-0.34,0.48-0.64,0.78-0.88c0.17-0.14,0.37-0.26,0.57-0.38
					C42.39,336.85,42.39,335.74,42.39,335.74z"/>
				<path class="st9" d="M64.84,366.01l-1.31,0.32c-0.05-0.19-3.74-14.87-9.63-23.6c0.29-0.41,0.55-0.8,0.81-1.19
					C60.92,350.38,64.64,365.2,64.84,366.01z"/>
			</g>
			<g>
				<path class="st4" d="M40.09,341.11c-0.13,1.05-0.11,2.2,0,3.29c-1.85,5.21-1.97,12.13-1.46,18.5
					c0.73,9.17,2.77,17.19,2.81,17.35l-1.31,0.34c-0.17-0.65-1.98-7.8-2.78-16.27c-0.64-6.77-0.63-14.38,1.39-20.2
					C39.12,343.06,39.57,342.04,40.09,341.11z"/>
				<path class="st4" d="M68.05,366.1l-1.31,0.32c-0.06-0.21-4.45-17.73-11.33-25.86c0.27-0.4,0.54-0.78,0.78-1.14
					C63.42,347.67,67.83,365.21,68.05,366.1z"/>
			</g>
			<g>
				<polygon class="st9" points="90.62,416.53 88.42,419.23 46.53,435.71 32.53,379.2 34.81,376.84 35.6,377.4 68.34,363.99 
					85.8,413.1 				"/>
				<polygon class="st4" points="34.81,376.84 68.34,363.99 90.62,416.53 48.72,433.02 				"/>
			</g>
		</g>
		<g>
			<path class="st9" d="M93.23,253.23c0,0-5.77,43.81-11.27,53.59c0,0-17.39,22.49-26.63,30.16c1.29,3.69,3.28,6.25,6.24,7.84
				c0,0,25.69-19.26,32.15-29.88c7.1-11.39,10.41-30.59,10.62-38.46C104.34,276.5,100.07,263.97,93.23,253.23z"/>
			<path class="st15" d="M52.53,345.54c0.21,0.11-0.7,0.59-0.55,2.23c0.1,1.11,6.87,0.91,9.58-2.93L55.32,337c0,0-9-2.85-12.71-1.59
				c-3.72,1.26-5.46,10.2-3.7,12.23c0,0,0.08,0.33,0.99-0.03c0,0,0.8,1.54,2.19,1.66c1.38,0.1,2.02-1.38,2.02-1.38
				s0.26,1.7,1.6,1.92c1.34,0.22,1.97-1.92,1.97-1.92s0.9,2.15,2.21,1.93C51.88,349.47,51.72,345.08,52.53,345.54z"/>
		</g>
		<g>
			<g>
				<path class="st1" d="M48.3,335.36c-2.14-0.32-4.28-0.43-5.68,0.05c-0.37,0.13-0.71,0.32-1.03,0.57
					c-2.79,0.94-5.12,3.11-7.09,5.99c-3.44,5.05-5.7,12.26-7.17,18.62c-1.74,7.59-2.26,13.52-2.28,13.67l-1.35-0.23
					c0.05-0.58,0.51-5.72,2.02-12.68c1.33-6.13,3.43-13.22,6.66-18.62c2.57-4.31,5.89-7.56,10.08-8.39
					C44.69,333.9,46.63,334.24,48.3,335.36z"/>
				<path class="st1" d="M54.81,370.18l-1.35-0.14c0.02-0.19,1.36-14.12-1.31-24.29c0.48-0.91,1.1-1.06,1.5-0.91
					C56.58,355.21,54.89,369.35,54.81,370.18z"/>
			</g>
			<g>
				<path class="st3" d="M39.7,338.48c-0.47,0.95-0.83,2.02-1.09,3.11c-3.48,4.3-5.88,10.79-7.51,16.98
					c-2.34,8.89-3.09,17.14-3.1,17.31l-1.35-0.11c0.06-0.67,0.72-8.01,2.77-16.27c1.63-6.6,4.17-13.78,8-18.6
					C38.15,340,38.9,339.19,39.7,338.48z"/>
				<path class="st3" d="M57.8,371.33l-1.35-0.13c0.02-0.22,1.68-18.21-2.13-28.16c0.29-0.63,0.69-0.82,1.11-0.82
					C59.54,352.41,57.89,370.41,57.8,371.33z"/>
			</g>
			<g>
				<polygon class="st1" points="62.4,426.39 59.43,428.2 13.36,429.93 18.81,372.49 22.89,370.45 23.45,371.25 58.79,369.44 
					58.99,421.55 				"/>
				<polygon class="st3" points="22.89,370.45 58.79,369.44 62.4,426.39 17.41,428.07 				"/>
			</g>
		</g>
	</g>
	<g>
		<g>
			<path class="st4" d="M150.85,356.09l0.13,0.56c-12.26,8.3-58.11,2.63-58.11,2.63c0.08-0.96,0.18-1.97,0.32-3.01
				c0.15-1.15,0.32-2.37,0.53-3.6c0.55-3.34,1.29-6.95,2.13-10.67c0.26-1.17,0.54-2.36,0.82-3.54c0.82-3.54,1.7-7.13,2.54-10.64
				c0.29-1.2,0.57-2.39,0.85-3.57c0.38-1.63,0.74-3.25,1.09-4.81c0.46-2.08,0.86-4.07,1.19-5.96c0.23-1.27,0.42-2.48,0.57-3.62
				c0.17-1.22,0.3-2.37,0.37-3.44c-0.73-2.7-1.41-5.33-2.05-7.89c-0.32-1.3-0.63-2.57-0.93-3.84c-0.94-4.04-1.77-7.87-2.49-11.47
				c-0.25-1.3-0.51-2.57-0.74-3.82c-0.8-4.24-1.45-8.07-1.97-11.42c-0.21-1.34-0.39-2.58-0.56-3.75c-0.18-1.28-0.34-2.47-0.48-3.56
				c-0.62-4.74-0.82-7.44-0.82-7.44c0.1-0.09,0.22-0.17,0.34-0.25c1.39-0.98,3.57-1.92,5.98-2.74c2.55-0.87,5.37-1.63,7.85-2.24
				c0.38-0.09,0.74-0.18,1.11-0.26c3.27-0.77,5.72-1.21,5.72-1.21c11.12,2.33,14.29,0.83,14.29,0.83l5.65,1.67l0.66,0.23l4.12,1.44
				l0.17,0.06l7.39,2.6l4.93,1.73l-1.91,8.81l-0.83,3.85l-2.52,11.6l-0.82,3.84l-2.5,11.57l-0.82,3.8l-2.08,9.58l0.41,1.83
				l0.81,3.56l1.28,5.65l1.17,5.11l0.8,3.54l2.42,10.65l0.81,3.52l2.4,10.53L150.85,356.09z"/>
			<path class="st15" d="M134.84,249.27c-1.19,6.95-4.07,16.27-11.08,17.02c-8.46,0.91-13.33-12.03-15.24-18.54
				c3.27-0.77,6.65-1.51,6.65-1.51c11.12,2.33,13.26,0.91,13.26,0.91l5.74,1.89L134.84,249.27z"/>
			<g>
				<path class="st7" d="M122.42,258.13c-8.87,0-10.99-10.95-11.01-11.07c-0.05-0.24,0.11-0.47,0.35-0.51
					c0.24-0.05,0.47,0.11,0.51,0.35c0.08,0.43,2.09,10.78,10.67,10.33c7.5-0.38,7.95-8.71,7.96-9.07c0.01-0.24,0.21-0.43,0.46-0.42
					c0.24,0.01,0.42,0.22,0.42,0.46c0,0.09-0.48,9.48-8.79,9.9C122.79,258.13,122.6,258.13,122.42,258.13z"/>
			</g>
			<path class="st9" d="M106.5,255.11c0,1.2-0.97,2.16-2.16,2.16c-1.2,0-2.16-0.97-2.16-2.16c0-1.2,0.97-2.16,2.16-2.16
				C105.54,252.95,106.5,253.92,106.5,255.11z"/>
			<path class="st9" d="M102.17,265.67c0,1.2-0.97,2.16-2.16,2.16s-2.16-0.97-2.16-2.16s0.97-2.16,2.16-2.16
				S102.17,264.48,102.17,265.67z"/>
			<path class="st9" d="M115.99,270.67c0,1.2-0.97,2.16-2.16,2.16c-1.2,0-2.16-0.97-2.16-2.16c0-1.2,0.97-2.16,2.16-2.16
				C115.03,268.51,115.99,269.47,115.99,270.67z"/>
			<path class="st9" d="M106.35,276.58c0.45,1.11-0.09,2.37-1.21,2.81c-1.11,0.45-2.37-0.09-2.81-1.21
				c-0.45-1.11,0.09-2.37,1.21-2.81C104.65,274.92,105.91,275.46,106.35,276.58z"/>
			<path class="st9" d="M125.13,280.57c0,1.2-0.97,2.16-2.16,2.16c-1.2,0-2.16-0.97-2.16-2.16s0.97-2.16,2.16-2.16
				S125.13,279.38,125.13,280.57z"/>
			<path class="st9" d="M138.92,285.04c0,1.2-0.97,2.16-2.16,2.16c-1.19,0-2.16-0.97-2.16-2.16s0.97-2.16,2.16-2.16
				C137.95,282.88,138.92,283.84,138.92,285.04z"/>
			<circle class="st9" cx="139.54" cy="257.28" r="2.16"/>
			<path class="st9" d="M126,294.4c0,1.2-0.97,2.16-2.16,2.16s-2.16-0.97-2.16-2.16c0-1.2,0.97-2.16,2.16-2.16S126,293.2,126,294.4z
				"/>
			<path class="st9" d="M112.67,301.11c0,1.2-0.97,2.16-2.16,2.16c-1.19,0-2.16-0.97-2.16-2.16c0-1.2,0.97-2.16,2.16-2.16
				C111.69,298.95,112.67,299.91,112.67,301.11z"/>
			<path class="st9" d="M111.11,288.89c0,1.2-0.97,2.16-2.16,2.16s-2.16-0.97-2.16-2.16c0-1.19,0.97-2.16,2.16-2.16
				S111.11,287.69,111.11,288.89z"/>
			<path class="st9" d="M132.43,271.24c0,1.2-0.97,2.16-2.16,2.16c-1.2,0-2.16-0.97-2.16-2.16c0-1.2,0.97-2.16,2.16-2.16
				C131.47,269.07,132.43,270.04,132.43,271.24z"/>
			<path class="st9" d="M144.4,268.51c0,1.2-0.97,2.16-2.16,2.16c-1.2,0-2.16-0.97-2.16-2.16c0-1.2,0.97-2.16,2.16-2.16
				C143.44,266.33,144.4,267.31,144.4,268.51z"/>
			<path class="st9" d="M136.76,297.98c0,1.2-0.97,2.16-2.16,2.16c-1.19,0-2.16-0.97-2.16-2.16c0-1.2,0.97-2.16,2.16-2.16
				C135.79,295.82,136.76,296.78,136.76,297.98z"/>
			<path class="st9" d="M137.35,315.1c0,1.2-0.97,2.16-2.16,2.16c-1.2,0-2.16-0.97-2.16-2.16c0-1.2,0.97-2.16,2.16-2.16
				C136.38,312.94,137.35,313.92,137.35,315.1z"/>
			<path class="st9" d="M126.33,307.96c0.45,1.11-0.09,2.37-1.21,2.81c-1.11,0.45-2.37-0.09-2.81-1.21
				c-0.45-1.11,0.09-2.37,1.21-2.81C124.62,306.31,125.88,306.85,126.33,307.96z"/>
			<path class="st9" d="M111.59,314.3c0.45,1.11-0.09,2.37-1.21,2.81c-1.11,0.45-2.37-0.09-2.81-1.21
				c-0.45-1.11,0.09-2.37,1.21-2.81C109.89,312.66,111.14,313.2,111.59,314.3z"/>
		</g>
		<path class="st4" d="M155.92,386.32c-19.7,12.32-49.49,11.11-66.76,3.01l0.53-4.26l0.45-3.62l1.33-10.75l0.45-3.62l0.96-7.77
			l14.88-0.67l40.2-1.82l3.03-0.14l1.67,10l0.59,3.59l1.75,10.46l0.59,3.6L155.92,386.32z"/>
		<g>
			<path class="st3" d="M155.92,386.32c-19.7,12.34-49.49,11.12-66.75,3.02l0.51-4.28l0.15-1.21l0.29-2.4l0.07-0.55l0.21-1.7
				l1.05-8.51l0.08-0.72l0.21-1.69l0.15-1.21l0.96-7.77c0-0.08,0.01-0.15,0.01-0.24c0.05-0.56,0.11-1.12,0.17-1.7
				c0.05-0.34,0.08-0.7,0.14-1.05c0.14-1.18,0.31-2.37,0.51-3.61c0.24-1.43,0.51-2.92,0.82-4.44c0.1-0.55,0.22-1.09,0.34-1.66
				c0.31-1.5,0.63-3.02,0.97-4.57c0.27-1.15,0.55-2.36,0.82-3.54c0.07-0.29,0.14-0.56,0.21-0.86c0.14-0.55,0.25-1.11,0.39-1.67
				c0.65-2.71,1.31-5.44,1.94-8.12c0.07-0.27,0.14-0.53,0.18-0.8c0.14-0.56,0.27-1.12,0.41-1.69c0.08-0.35,0.17-0.72,0.25-1.07
				c0.38-1.63,0.75-3.26,1.09-4.81c7.67,1.73,24.99,4.58,41.33-0.24l1.04,4.58l0.11,0.53l0.25,1.15l0.55,2.39l1.49,6.53l0.39,1.69
				l0.55,2.42l0.8,3.53l0.66,2.95l0.39,1.69l1.35,5.9l0.69,3.02l0.11,0.49l0.14,0.56l0.1,0.65l1.52,9.12l0.03,0.22l0.25,1.5
				l0.34,2.08l1.18,7.04l0.29,1.7l0.29,1.73l0.03,0.25l0.56,3.34L155.92,386.32z"/>
			<g>
				<g>
					<path class="st1" d="M143.86,325.47c-6.73,2.88-14.75,3.81-22.27,3.81c-9.11,0-17.54-1.35-22.22-2.26
						c0.14-0.56,0.27-1.12,0.41-1.69c8.51,1.63,29.45,4.65,43.72-1.53l0.11,0.53L143.86,325.47z"/>
				</g>
				<g>
					<path class="st1" d="M146.29,336.08c-7.84,3.27-16.69,4.33-24.87,4.33c-10.32,0-19.62-1.69-24.58-2.81
						c0.14-0.55,0.25-1.11,0.39-1.67c8.8,1.91,31.52,5.69,48.66-1.53L146.29,336.08z"/>
				</g>
				<g>
					<path class="st1" d="M148.7,346.68c-8.85,3.6-18.52,4.79-27.37,4.79c-11.47,0-21.54-1.98-26.81-3.24
						c0.1-0.55,0.22-1.09,0.34-1.66c9.15,2.18,33.46,6.66,53.45-1.59L148.7,346.68z"/>
				</g>
				<g>
					<path class="st1" d="M151.08,357.3c-9.98,3.98-20.49,5.28-29.99,5.28c-12.06,0-22.5-2.09-28.23-3.54
						c0.05-0.56,0.11-1.12,0.17-1.7c9.91,2.5,35.26,7.35,57.68-1.74l0.11,0.49l0.14,0.56L151.08,357.3z"/>
				</g>
				<g>
					<path class="st1" d="M152.9,368.15c-10.92,4.17-22.05,5.58-32.04,5.58c-12.44,0-23.09-2.15-29.3-3.77l0.21-1.69
						c10.89,2.84,36.53,7.63,60.85-1.84l0.03,0.22L152.9,368.15z"/>
				</g>
				<g>
					<path class="st1" d="M154.7,378.98c-11.82,4.4-23.62,5.86-34.11,5.86c-12.86,0-23.76-2.2-30.39-3.96l0.21-1.7
						c11.75,3.13,37.84,7.91,64.01-1.91L154.7,378.98z"/>
				</g>
			</g>
			<path class="st1" d="M155.92,386.32c-19.7,12.32-49.49,11.11-66.76,3.01l0.53-4.28l0.15-1.21c4.69,2.02,15.48,5.64,32.71,5.51
				c16.3-0.13,27.2-5.18,32.49-8.4l0.56,3.35L155.92,386.32z"/>
		</g>
	</g>
	<g>
		<g>
			<g>
				<path class="st16" d="M135.67,219.92c0,0,2.65-3.37,4.63-0.58c1.98,2.79-0.82,11.01-5.66,9L135.67,219.92z"/>
				<path class="st7" d="M136.81,227.76c0,0.49,0.4,0.88,0.88,0.88c0.49,0,0.88-0.4,0.88-0.88c0-0.49-0.4-0.88-0.88-0.88
					C137.2,226.88,136.81,227.27,136.81,227.76z"/>
				<g>
					<path class="st17" d="M135.7,225.8c0.18,0,0.34-0.11,0.39-0.29c0.75-2.54,3.52-3.57,3.54-3.58c0.21-0.08,0.32-0.3,0.24-0.5
						c-0.08-0.21-0.32-0.3-0.53-0.23c-0.13,0.05-3.18,1.17-4.05,4.09c-0.06,0.21,0.07,0.42,0.29,0.48
						C135.62,225.78,135.66,225.8,135.7,225.8z"/>
				</g>
				<g>
					<path class="st17" d="M138.49,224.52c0.08,0,0.15-0.02,0.22-0.06c0.19-0.11,0.24-0.35,0.13-0.54
						c-0.02-0.03-0.51-0.74-1.53-1.18c-0.21-0.09-0.45,0-0.54,0.19c-0.09,0.19,0,0.42,0.21,0.51c0.79,0.33,1.18,0.88,1.18,0.89
						C138.23,224.46,138.35,224.52,138.49,224.52z"/>
				</g>
			</g>
			<path class="st15" d="M115.17,237.13v10.08c0,0,4.69,3.61,8.35,3.93c3.66,0.32,4.92-3.99,4.92-3.99v-9.39L115.17,237.13z"/>
			<path class="st16" d="M115.17,238.11v4.02c2.46,2.72,6.81,3.69,13.26,2.73v-6.13L115.17,238.11z"/>
			<path class="st15" d="M137.26,223.75c-0.11,0.97-0.25,1.97-0.43,2.95c-1.15,6.56-5.3,13.65-10.55,14.84
				c-11.32,2.57-16.02-6.32-17.82-12.87c-0.19-0.73,0.17-1.57,0.01-2.42c-0.38-2.05-1.2-4.37-1.38-6.65
				c-0.13-1.59-0.22-3.16-0.29-4.56c-0.18-3.99,2.13-7.65,5.74-9.08c5.2-2.07,13.1-3.7,20.58,0.69c2.77,1.62,4.49,4.62,4.56,7.9
				C137.72,217.04,137.66,220.32,137.26,223.75z"/>
			<g>
				<g>
					<g>
						<path class="st16" d="M123.46,228.83c-0.21,0-0.4-0.15-0.43-0.37c-0.05-0.24,0.13-0.47,0.37-0.5l1.51-0.25l-2.08-5.53
							c-0.08-0.23,0.03-0.48,0.25-0.56c0.23-0.08,0.48,0.03,0.56,0.25l2.46,6.54l-2.56,0.43
							C123.5,228.83,123.48,228.83,123.46,228.83z"/>
					</g>
				</g>
			</g>
			<path class="st5" d="M132.9,212.71c4.42,2.01,3.02,7.27,4.52,9.91c0.09,0.17,0.19,0.21,0.31,0.11c0.42-3.5,0.49-6.85,0.43-9.4
				c-0.07-3.35-1.9-6.4-4.8-8.06c-7.89-4.47-16.21-2.8-21.7-0.7c-3.81,1.46-6.24,5.19-6.05,9.26c0.07,1.44,0.17,3.04,0.31,4.65
				c0.73,0.43,2.53,0.64,2.61,1.82c0.19,3.12,0.35,5.26,1.01,5.06c1.1-0.32,1.78-4.09,0.53-6.54c0,0,1.01-1.65,5.13-3.24
				c5.28-2.03,10.37-5.05,10.37-5.05s2.01-1.21,2.78-2.53C128.33,208.02,129.54,211.16,132.9,212.71z"/>
			<path class="st5" d="M128.6,221.5c0,0.97,0.5,1.75,1.11,1.75c0.62,0,1.11-0.79,1.11-1.75c0-0.97-0.5-1.75-1.11-1.75
				C129.09,219.75,128.6,220.54,128.6,221.5z"/>
			<path class="st5" d="M116.55,221.5c0,0.97,0.5,1.75,1.11,1.75c0.62,0,1.11-0.79,1.11-1.75c0-0.97-0.5-1.75-1.11-1.75
				C117.06,219.75,116.55,220.54,116.55,221.5z"/>
			<path class="st5" d="M132.72,216.9c-0.89-0.17-2.71-0.46-4.64-0.4c-0.5,0.02-0.91,0.4-0.85,0.8v0.01
				c0.06,0.32,0.4,0.54,0.81,0.51c1.31-0.1,4.76-0.08,6.36,0.4c0.05-0.23-0.11-0.48-0.33-0.7C133.72,217.21,133.24,217,132.72,216.9
				z"/>
			<path class="st5" d="M114.8,217.12c0.89-0.18,2.7-0.5,4.63-0.46c0.5,0.01,0.91,0.39,0.86,0.79v0.01
				c-0.05,0.32-0.39,0.55-0.8,0.53c-1.31-0.08-4.76-0.01-6.36,0.49c-0.05-0.23,0.1-0.48,0.33-0.7
				C113.8,217.44,114.28,217.22,114.8,217.12z"/>
			<path class="st7" d="M128.33,231.44c-0.32,1.54-1.41,4.38-5.05,4.38c-3.66,0-4.69-2.6-5.03-4.38H128.33z"/>
			<g>
				<path class="st16" d="M123.32,238.47c1.05,0,1.98-0.57,2.02-0.59c0.21-0.13,0.26-0.39,0.14-0.59s-0.39-0.26-0.59-0.14l0,0
					c-0.01,0-0.77,0.46-1.57,0.46c-0.87,0-1.65-0.46-1.66-0.47c-0.21-0.13-0.47-0.06-0.59,0.15c-0.13,0.21-0.06,0.47,0.15,0.59
					C121.26,237.9,122.21,238.47,123.32,238.47z"/>
			</g>
		</g>
		<g>
			<path class="st15" d="M108.41,219.89c0,0-3.09-3.75-4.92-1.04c-1.83,2.71,0.75,10.69,5.21,8.75L108.41,219.89z"/>
			<path class="st7" d="M105.91,227.76c0,0.49,0.4,0.88,0.88,0.88c0.48,0,0.88-0.4,0.88-0.88c0-0.49-0.4-0.88-0.88-0.88
				C106.31,226.88,105.91,227.27,105.91,227.76z"/>
			<g>
				<path class="st16" d="M107.74,225.12c-0.16,0-0.32-0.11-0.37-0.27c-0.7-2.47-3.25-3.46-3.27-3.48c-0.19-0.07-0.3-0.3-0.22-0.49
					c0.07-0.19,0.29-0.3,0.49-0.22c0.11,0.05,2.94,1.14,3.73,3.98c0.06,0.21-0.06,0.41-0.26,0.47
					C107.81,225.11,107.77,225.12,107.74,225.12z"/>
			</g>
			<g>
				<g>
					<g>
						<path class="st16" d="M105.17,223.88c-0.07,0-0.14-0.02-0.21-0.06c-0.17-0.11-0.23-0.34-0.11-0.53
							c0.02-0.03,0.47-0.72,1.42-1.14c0.19-0.08,0.41,0,0.5,0.19c0.08,0.19,0,0.41-0.19,0.5c-0.73,0.33-1.09,0.86-1.09,0.86
							C105.41,223.82,105.28,223.88,105.17,223.88z"/>
					</g>
				</g>
			</g>
		</g>
	</g>
</g>
<rect x="171" y="381" class="st9" width="211" height="129"/>
<g>
	<g>
		<polygon class="st4" points="489.8,517.79 398.05,517.79 410.68,415.67 477.17,415.67 		"/>
		<g>
			<path class="st18" d="M432.46,420.78c0,1.73-1.41,3.13-3.13,3.13c-1.73,0-3.13-1.41-3.13-3.13c0-1.73,1.41-3.13,3.13-3.13
				C431.05,417.65,432.46,419.06,432.46,420.78z"/>
			<path class="st18" d="M464.53,420.78c0,1.73-1.41,3.13-3.13,3.13s-3.13-1.41-3.13-3.13c0-1.73,1.41-3.13,3.13-3.13
				C463.12,417.65,464.53,419.06,464.53,420.78z"/>
			<g>
				<path class="st7" d="M429.41,420.42L429.41,420.42c-0.73-0.02-1.3-0.64-1.27-1.37c0.16-3.18,0.72-11.58,2.45-19.89
					c3.04-14.62,8.14-22.03,15.14-22.03c7.01,0,11.97,7.42,14.75,22.05c1.58,8.31,1.98,16.7,2.08,19.89
					c0.02,0.73-0.56,1.34-1.29,1.35l0,0c-0.72,0.01-1.3-0.56-1.31-1.27c-0.3-12.1-3.26-39.4-14.21-39.4
					c-10.97,0-14.45,27.31-14.96,39.42C430.71,419.88,430.11,420.44,429.41,420.42z"/>
			</g>
		</g>
	</g>
	<g>
		<polygon class="st3" points="482.76,525.67 342.75,525.67 355.65,460.13 469.86,460.13 		"/>
		<g>
			<g>
				<path class="st1" d="M388.2,466.08c0,1.73-1.41,3.13-3.13,3.13s-3.13-1.41-3.13-3.13s1.41-3.13,3.13-3.13
					C386.81,462.95,388.2,464.35,388.2,466.08z"/>
				<path class="st1" d="M442.86,466.08c0,1.73-1.41,3.13-3.13,3.13c-1.73,0-3.13-1.41-3.13-3.13s1.41-3.13,3.13-3.13
					C441.46,462.95,442.86,464.35,442.86,466.08z"/>
			</g>
			<g>
				<path class="st7" d="M385.05,465.71L385.05,465.71c-0.85-0.02-1.49-0.74-1.42-1.58c0.25-2.77,1.07-8.84,3.84-14.98
					c4.95-11.01,13.71-16.82,25.33-16.82c11.64,0,20.25,5.83,24.9,16.85c2.6,6.14,3.25,12.21,3.42,14.99
					c0.05,0.83-0.62,1.54-1.46,1.54l0,0c-0.77,0-1.41-0.61-1.45-1.37c-0.16-2.57-0.8-8.38-3.22-14.1c-4.22-9.95-11.68-15-22.18-15
					c-10.54,0-18.17,5.09-22.68,15.1c-2.57,5.72-3.36,11.48-3.59,14.04C386.47,465.15,385.81,465.74,385.05,465.71z"/>
			</g>
		</g>
	</g>
	<g>
		<rect x="133.85" y="465.66" class="st3" width="77.9" height="59.17"/>
		<rect x="131.26" y="462.71" class="st19" width="83.07" height="9.84"/>
		<rect x="133.85" y="472.56" class="st1" width="77.9" height="5.42"/>
		<rect x="169.38" y="462.71" class="st7" width="6.83" height="62.18"/>
		<rect x="169.39" y="477.61" class="st20" width="6.83" height="47.28"/>
		<rect x="169.39" y="472.56" class="st21" width="6.83" height="5.42"/>
	</g>
</g>
<circle class="st22" cx="271.5" cy="445" r="43.5"/>
<g id="XMLID_15_">
	<path id="XMLID_16_" class="st3" d="M287.37,468.08h-31.75c-0.99,0-1.8-0.81-1.8-1.8v-26.24c0-0.99,0.81-1.8,1.8-1.8h31.75
		c0.99,0,1.8,0.81,1.8,1.8v26.24C289.17,467.27,288.37,468.08,287.37,468.08z"/>
	<path id="XMLID_17_" class="st23" d="M285.61,433v-1.28c0-7.79-6.33-14.12-14.11-14.12c-7.78,0-14.11,6.33-14.11,14.12v12.1h20.38"
		/>
</g>
<path id="XMLID_35_" class="st7" d="M271.03,462c-0.43,0-0.86-0.16-1.19-0.45l-5.38-5.35c-0.74-0.65-0.8-1.78-0.15-2.52
	c0.65-0.74,1.78-0.8,2.52-0.15l3.88,4.02l7.55-10.84c0.56-0.81,1.67-1.01,2.48-0.44c0.81,0.56,1.01,1.68,0.44,2.48l-8.7,12.49
	c-0.29,0.42-0.75,0.69-1.25,0.75C271.17,462,271.1,462,271.03,462z"/>
</svg>
