<?xml version="1.0" encoding="utf-8"?>
<!-- Generator: Adobe Illustrator 23.1.0, SVG Export Plug-In . SVG Version: 6.00 Build 0)  -->
<svg version="1.1" xmlns="http://www.w3.org/2000/svg" xmlns:xlink="http://www.w3.org/1999/xlink" x="0px" y="0px"
	 viewBox="0 0 500 500" style="enable-background:new 0 0 500 500;" xml:space="preserve">
<style type="text/css">
	.st0{fill:#D3E8EE;}
	.st1{fill:#004FC7;}
	.st2{fill:#0034AE;}
	.st3{fill:#0172D2;}
	.st4{fill:#FC5F2D;}
	.st5{fill:#133643;}
	.st6{fill:#000B17;}
	.st7{fill:#FFFFFF;}
	.st8{opacity:0.3;fill:#FFFFFF;}
	.st9{fill:#D53E2F;}
	.st10{fill:#335464;}
	.st11{fill:#FFAA95;}
	.st12{fill:#FF8B6B;}
	.st13{fill:#D85C48;}
	.st14{fill:#FC9749;}
	.st15{fill:#0096E2;}
	.st16{fill:#ED3915;}
	.st17{fill:#0097EA;}
	.st18{fill:#F1F1F1;}
	.st19{fill:#D8D8D8;}
</style>
<g id="BACKGROUND">
</g>
<g id="OBJECTS">
	<path class="st0" d="M467.36,441.05c0,6.54-95.64,11.84-213.61,11.84c-117.98,0-213.61-5.3-213.61-11.84
		c0-6.54,95.64-11.84,213.61-11.84C371.73,429.2,467.36,434.51,467.36,441.05z"/>
	<g>
		<path class="st0" d="M229.93,126.4c-16.9-61.32-93.07-81.07-136.73-35.24c-0.63,0.66-1.25,1.33-1.88,2.01
			c-62.58,68.03-33.02,235.68,97.59,278.17c130.61,42.49,266.46-35.1,274.09-104.46c7.63-69.36-52.62-91.16-146.14-71.76
			C264.04,206.07,240.45,164.57,229.93,126.4z"/>
		<path class="st0" d="M344.1,140.96c-16.92,5.23-19.58,21.23-4.7,30.25c4.92,2.98,11.64,5.09,20.83,5.33
			c35.02,0.92,51.08-16.76,34.63-34.48C384.7,131.11,360.86,135.78,344.1,140.96z"/>
		<path class="st0" d="M78.82,301.97c-13.47-11.49-28.41-5.17-28.06,12.23c0.12,5.75,1.93,12.56,6.65,20.45
			c17.98,30.07,41.51,34.17,47.67,10.78C108.88,330.99,92.17,313.36,78.82,301.97z"/>
		<path class="st0" d="M435.31,332.85c-4.96,7-1.1,15.32,7.42,15.63c2.82,0.1,6.07-0.69,9.7-3.03c13.85-8.92,14.68-21.6,2.89-25.64
			C448.03,317.32,440.22,325.91,435.31,332.85z"/>
		<path class="st0" d="M172.75,45.39c-6.34-1.22-10.84,4.01-8.41,9.94c0.8,1.96,2.36,3.94,5.09,5.71c10.42,6.72,19.37,3.34,18.47-6
			C187.35,49.29,179.04,46.6,172.75,45.39z"/>
	</g>
	<g>
		<g>
			<path class="st1" d="M89.18,105.05c4.17,14,18.15,13.57,17.86,24.94c-0.3,11.37,6.85,20,16.67,17.92
				c9.82-2.09,16.93-4.17,21.41,7.14c4.48,11.31,18.76,16.96,24.42,8.03c1.41-2.22,2.93-4.63,4.42-6.99
				c0.41-0.65,0.81-1.29,1.21-1.92c0.09-0.15,0.19-0.29,0.28-0.44c5.99-9.5,4.01-22.1-4.82-29.05c-3.57-2.81-7.85-4.39-12.69-2.97
				c-15.18,4.46-9.71-10.8-18.75-17.26c-10.41-7.44-19.35,0.98-26.48-5.36C102.76,90.29,85.01,91.05,89.18,105.05z"/>
			<g>
				<path class="st2" d="M107.28,111.11l66.66,44.98c0.41-0.65,0.81-1.29,1.21-1.92l-66.6-44.94c-0.52-0.35-1.23-0.21-1.58,0.31
					C106.63,110.05,106.76,110.76,107.28,111.11z"/>
			</g>
		</g>
		<g>
			<path class="st1" d="M421.29,313.01c-5.76,13.61-19.76,11.6-20.74,23.06c-0.97,11.46-9.12,19.33-18.76,16.14
				c-9.64-3.2-16.55-6.09-22.32,4.78c-5.77,10.86-20.76,14.95-25.44,5.34c-1.17-2.39-2.43-4.98-3.66-7.52
				c-0.34-0.69-0.67-1.39-1-2.07c-0.08-0.16-0.15-0.31-0.23-0.47c-4.95-10.22-1.55-22.66,8.1-28.65c3.91-2.43,8.38-3.54,13.09-1.56
				c14.75,6.19,10.97-9.77,20.78-15.25c11.3-6.31,19.34,3.15,27.22-2.42C409.3,296.65,427.05,299.4,421.29,313.01z"/>
			<g>
				<path class="st2" d="M402.42,317.07l-72.04,37.74c-0.34-0.69-0.67-1.39-1-2.07l71.97-37.71c0.56-0.29,1.26-0.08,1.55,0.48
					C403.19,316.08,402.98,316.77,402.42,317.07z"/>
			</g>
		</g>
		<g>
			<path class="st3" d="M396.43,255.45c1.66,13.7-10.62,18.58-6.09,28.31c4.53,9.73,1.59,19.89-7.7,21.78
				c-9.29,1.89-16.23,2.76-15.86,14.24c0.37,11.48-9.87,21.75-18.12,16.14c-2.06-1.39-4.28-2.91-6.46-4.39
				c-0.59-0.41-1.19-0.81-1.77-1.21c-0.14-0.09-0.27-0.18-0.41-0.28c-8.76-5.98-11.78-17.63-6.75-26.97
				c2.04-3.78,5.14-6.76,9.88-7.34c14.82-1.84,4.35-13.01,9.75-22c6.22-10.36,17.13-6.43,20.92-14.6
				C379.12,247.77,394.78,241.75,396.43,255.45z"/>
			<g>
				<path class="st1" d="M383.03,267.5l-40.81,64.02c-0.59-0.41-1.19-0.81-1.77-1.21l40.78-63.97c0.32-0.5,0.98-0.65,1.48-0.33
					C383.2,266.34,383.35,267,383.03,267.5z"/>
			</g>
		</g>
		<g>
			<path class="st3" d="M111.18,51.88c-1.73,14.29,11.08,19.38,6.35,29.53c-4.73,10.15-1.66,20.75,8.03,22.72
				c9.69,1.97,16.93,2.88,16.54,14.85c-0.39,11.97,10.3,22.69,18.91,16.84c2.14-1.45,4.46-3.03,6.73-4.58
				c0.62-0.42,1.24-0.85,1.85-1.26c0.14-0.1,0.28-0.19,0.42-0.29c9.14-6.24,12.29-18.39,7.04-28.13c-2.13-3.94-5.37-7.05-10.3-7.66
				c-15.46-1.92-4.53-13.57-10.17-22.95c-6.49-10.81-17.86-6.7-21.82-15.23C129.24,43.87,112.91,37.6,111.18,51.88z"/>
			<g>
				<path class="st1" d="M125.16,64.46l42.58,66.79c0.62-0.42,1.24-0.85,1.85-1.26l-42.54-66.73c-0.33-0.52-1.02-0.67-1.54-0.34
					C124.98,63.25,124.83,63.94,125.16,64.46z"/>
			</g>
		</g>
		<path class="st4" d="M416.34,64.78c16.01-6.67,29.93-15.93,22.21-21.48c-7.73-5.56-31.4,10.84-42.35,30.15l-5.3,5.68
			c8.23-13.94,10.64-34.07,3.52-37.89c-7.07-3.8-7.46,9.75-5.75,22.18c1.3,9.46-0.01,15.96-1.01,19.18l-25.02,26.82
			c12.97-22.11,16.73-53.89,5.47-59.94c-11.22-6.03-11.83,15.47-9.12,35.2c2.05,14.91,0.01,25.18-1.57,30.34l-4.99,5.35
			c0.79,1.01,1.59,2.02,2.39,3.02l29.76-31.91c3.56-0.9,8.71-1.64,15.41-1.19c12.52,0.84,26.01-0.49,21.73-7.28
			c-3.72-5.89-19.04-3.88-31.74,2.68l10.29-11.04C404.06,71.77,409.43,67.66,416.34,64.78z"/>
		<path class="st4" d="M92.7,293.25c-16.62-4.96-31.44-12.71-24.33-19.04c7.11-6.34,32.36,7.49,45.27,25.55l5.86,5.09
			c-9.64-13-14.14-32.77-7.47-37.32c6.64-4.52,8.44,8.91,8.04,21.46c-0.3,9.55,1.68,15.87,3.01,18.97l27.69,24.06
			c-15.21-20.63-22.28-51.84-11.72-59.04c10.53-7.17,13.39,14.14,12.75,34.05c-0.48,15.04,2.63,25.04,4.73,30l5.52,4.8
			c-0.68,1.09-1.37,2.17-2.06,3.25l-32.94-28.62c-3.64-0.52-8.83-0.72-15.45,0.43c-12.37,2.15-25.92,2.24-22.37-4.96
			c3.08-6.25,18.53-5.85,31.84-0.66l-11.39-9.9C105.64,298.92,99.87,295.39,92.7,293.25z"/>
	</g>
	<g>
		<g>
			<path class="st5" d="M355.12,91.39v330.67c0,10.37-8.4,18.77-18.77,18.77H171.69c-5.21,0-9.92-2.12-13.32-5.54
				c-3.37-3.39-5.45-8.07-5.45-13.22V91.39c0-10.37,8.4-18.77,18.77-18.77h164.66c3.06,0,5.96,0.73,8.51,2.04
				C350.95,77.76,355.12,84.09,355.12,91.39z"/>
			<path class="st6" d="M355.12,91.39v330.67c0,10.37-8.4,18.77-18.77,18.77H171.69c-5.21,0-9.92-2.12-13.32-5.54L344.86,74.66
				C350.95,77.76,355.12,84.09,355.12,91.39z"/>
		</g>
		<g>
			<path class="st6" d="M152.33,205.62h-0.42c-3.23,0-5.85-2.62-5.85-5.85v-31.98c0-3.23,2.62-5.85,5.85-5.85h0.42
				c0.33,0,0.59,0.26,0.59,0.59v42.51C152.92,205.36,152.66,205.62,152.33,205.62z"/>
			<path class="st6" d="M355.56,205.62h0.42c3.23,0,5.85-2.62,5.85-5.85v-31.98c0-3.23-2.62-5.85-5.85-5.85h-0.42
				c-0.33,0-0.59,0.26-0.59,0.59v42.51C354.97,205.36,355.23,205.62,355.56,205.62z"/>
			<path class="st6" d="M152.33,255.24h-0.42c-3.23,0-5.85-2.62-5.85-5.85V217.4c0-3.23,2.62-5.85,5.85-5.85h0.42
				c0.33,0,0.59,0.26,0.59,0.59v42.51C152.92,254.97,152.66,255.24,152.33,255.24z"/>
		</g>
		<g>
			<path class="st7" d="M345.76,92.2v329.04c0,5.64-4.58,10.22-10.22,10.22H172.5c-4.02,0-7.5-2.33-9.17-5.71
				c0-0.01-0.01-0.02-0.01-0.03c-0.67-1.35-1.04-2.87-1.04-4.48V92.2c0-5.64,4.58-10.22,10.22-10.22h163.04
				c1.77,0,3.44,0.45,4.89,1.24c0.01,0,0.01,0.01,0.02,0.01C343.61,84.97,345.76,88.34,345.76,92.2z"/>
			<g>
				<path class="st0" d="M327.13,190.97h-146c-6.18,0-11.19-5.01-11.19-11.19v-1.47c0-6.18,5.01-11.19,11.19-11.19h146
					c6.18,0,11.19,5.01,11.19,11.19v1.47C338.32,185.96,333.31,190.97,327.13,190.97z"/>
				<g>
					<path class="st0" d="M333.12,308.89H175.14c-2.87,0-5.2-2.33-5.2-5.2l0,0c0-2.87,2.33-5.2,5.2-5.2h157.98
						c2.87,0,5.2,2.33,5.2,5.2l0,0C338.32,306.56,335.99,308.89,333.12,308.89z"/>
					<path class="st0" d="M333.12,331.41H175.14c-2.87,0-5.2-2.33-5.2-5.2l0,0c0-2.87,2.33-5.2,5.2-5.2h157.98
						c2.87,0,5.2,2.33,5.2,5.2l0,0C338.32,329.08,335.99,331.41,333.12,331.41z"/>
					<path class="st0" d="M333.12,353.93H175.14c-2.87,0-5.2-2.33-5.2-5.2l0,0c0-2.87,2.33-5.2,5.2-5.2h157.98
						c2.87,0,5.2,2.33,5.2,5.2l0,0C338.32,351.6,335.99,353.93,333.12,353.93z"/>
				</g>
				<path class="st0" d="M297.98,361.18h-6.91c-0.5,0-0.94,0.33-1.07,0.82l-1.01,3.7h-63.53c-0.32,0-0.62,0.14-0.83,0.38
					c-0.21,0.24-0.3,0.56-0.26,0.87l1.02,7.3c-0.02,0.09-0.04,0.18-0.04,0.27c0,0.2,0.05,0.39,0.15,0.55l1.29,9.24l0.3,2.19
					l1.21,8.7l0.3,2.19l1.07,7.7c0.07,0.54,0.54,0.95,1.08,0.95h47.01l-1.53,5.5c-0.72,2.57-3.08,4.37-5.76,4.37h-33.46
					c-0.57,0-1.08,0.42-1.14,0.99c-0.06,0.65,0.45,1.2,1.09,1.2h4.17c-1.19,0.77-1.98,2.1-1.98,3.62c0,2.38,1.93,4.31,4.31,4.31
					c2.38,0,4.31-1.93,4.31-4.31c0-1.52-0.79-2.86-1.98-3.62h18.87c-1.19,0.77-1.98,2.1-1.98,3.62c0,2.38,1.93,4.31,4.31,4.31
					c2.38,0,4.31-1.93,4.31-4.31c0-1.52-0.79-2.86-1.98-3.62h1.17c3.65,0,6.89-2.46,7.87-5.97l1.88-6.75c0,0,0,0,0,0l0,0
					c0.02-0.04,0.04-0.09,0.05-0.14l2.18-7.84l0.61-2.19l2.42-8.7l0.61-2.19l2.5-8.99l0.31-1.1v0l1.99-7.14
					c0.01-0.03,0.02-0.07,0.02-0.1l0.98-3.59h6.07c0.61,0,1.11-0.5,1.11-1.11C299.08,361.68,298.59,361.18,297.98,361.18z
					 M279.94,398.31L279.94,398.31c-0.02,0.05-0.04,0.1-0.05,0.15l-1.5,5.39h-46.66l-0.9-6.45h49.37L279.94,398.31z M280.81,395.2
					h-50.28l-1.21-8.7h53.92L280.81,395.2z M283.84,384.31H229l-1.21-8.7h58.47L283.84,384.31z M286.87,373.43h-59.38l-0.77-5.54
					h61.7L286.87,373.43z"/>
				<g>
					<path class="st0" d="M299.41,281.7h-4.78c-20.05,0-36.45-16.4-36.45-36.45v-4.78c0-20.04,16.4-36.45,36.45-36.45h4.78
						c20.05,0,36.45,16.4,36.45,36.45v4.78C335.86,265.3,319.46,281.7,299.41,281.7z"/>
					<g>
						<g>
							<g>
								<path class="st3" d="M320.32,267.1c-2.25-2.84-9.55-12.63-10.54-21.01c-0.37-3.2-0.32-6.37,0.43-9.08
									c1.61-5.81,3.41-9.86,3.49-10.04c0,0-3.6-5.87-3.41-17.3l-0.78-0.28c-1.2-0.43-2.51,0.26-2.84,1.49
									c-0.87,3.26-3.25,7.25-7.49,7.25c-4.57,0-6.89-3.98-8.1-7.4c-0.44-1.26-2-1.7-3.06-0.9l-1.52,1.15
									c0.64,3.37,1.74,11.93-2.22,17.15c0,0,6.17,11.14,3.95,17.98c-2.2,6.83-12.54,21.3-12.54,21.3s8.32,9.31,22.64,9.31
									c15.84,0,22.64-8.8,22.64-8.8S320.73,267.61,320.32,267.1z"/>
							</g>
						</g>
					</g>
				</g>
				<g>
					<path class="st0" d="M211.17,281.7h-4.78c-20.04,0-36.45-16.4-36.45-36.45v-4.78c0-20.04,16.4-36.45,36.45-36.45h4.78
						c20.05,0,36.45,16.4,36.45,36.45v4.78C247.62,265.3,231.21,281.7,211.17,281.7z"/>
					<g>
						<g>
							<path class="st4" d="M222.01,238.65c0.39,12.39,0.47,27.61,0.43,31.35c-9.76,2.52-19.51,2.53-29.25,0
								c-0.05-3.81-0.1-19.27,0.2-31.66c0-0.12,0-0.24,0.01-0.35v0c-2.08-0.05-3.81-1.01-4.96-1.87c-0.97-0.72-1.52-1.38-1.52-1.38
								c2.09-5.4,6.69-11.56,7.68-12.79c0,0,0,0,0-0.01c0,0,0,0,0,0c0.65-0.91,3-2.41,5.47-3.84c0.44-0.26,0.91-0.46,1.4-0.59
								c0.49-0.13,0.99-0.2,1.51-0.2c0.28,0,0.51,0.23,0.51,0.51v0.02c0,2.59,2.15,4.68,4.76,4.59c2.49-0.09,4.42-2.21,4.42-4.7
								c0,0,0,0,0-0.01c0-0.23,0.19-0.42,0.42-0.42c0.81,0,1.59,0.21,2.29,0.63c2.34,1.38,4.6,2.84,5.26,3.77
								c0.94,1.15,5.63,7.76,7.83,13C227.33,236.32,223.88,238.19,222.01,238.65z"/>
						</g>
					</g>
				</g>
			</g>
			<path class="st8" d="M345.76,92.2v329.04c0,5.64-4.58,10.22-10.22,10.22H172.5c-4.02,0-7.5-2.33-9.17-5.71
				c0-0.01-0.01-0.02-0.01-0.03l177.11-342.5c0.01,0,0.01,0.01,0.02,0.01C343.61,84.97,345.76,88.34,345.76,92.2z"/>
			<g>
				<path class="st7" d="M369.63,134.29v23.98H138.62v-23.98h0c27.84-5.06,36.73-52.3,36.73-52.3H332.9
					C332.9,81.98,341.78,129.23,369.63,134.29z"/>
				<rect x="138.62" y="134.29" class="st0" width="231.01" height="23.98"/>
				<path class="st4" d="M204.69,81.98c0,0-8.89,47.25-36.73,52.3v23.98h-29.33v-23.98c27.85-5.05,36.73-52.3,36.73-52.3H204.69z"/>
				<path class="st4" d="M369.64,134.29v23.98H340.3v-23.98c-27.85-5.05-36.73-52.3-36.73-52.3h29.34
					C332.91,81.98,341.79,129.23,369.64,134.29z"/>
				<path class="st4" d="M233.52,134.45v23.82h-27.49l-0.69-23.98c17.49-13.41,18.86-52.3,18.86-52.3h18.12
					C243.17,110.1,233.52,134.45,233.52,134.45z"/>
				<path class="st4" d="M299.62,134.29l-0.69,23.98h-27.49v-23.82c0,0-9.64-24.35-8.8-52.47h18.12
					C280.76,81.98,282.14,120.87,299.62,134.29z"/>
				<rect x="138.62" y="134.29" class="st9" width="29.33" height="23.98"/>
				<polygon class="st9" points="369.64,134.29 369.64,158.27 340.3,158.27 340.3,134.29 369.63,134.29 				"/>
				<path class="st9" d="M233.59,134.29c-0.04,0.11-0.06,0.17-0.06,0.17v23.82h-27.49l-0.69-23.98H233.59z"/>
				<path class="st9" d="M299.62,134.29l-0.69,23.98h-27.49v-23.82c0,0-0.02-0.06-0.06-0.17H299.62z"/>
			</g>
		</g>
		<g>
			<path class="st5" d="M301.84,98.52H206.2c-4.91,0-8.93-4.02-8.93-8.93v-1.17c0-4.91,4.02-8.93,8.93-8.93h95.64
				c4.91,0,8.93,4.02,8.93,8.93v1.17C310.77,94.5,306.75,98.52,301.84,98.52z"/>
			<path class="st6" d="M281.12,90.1h-63.63c-1.21,0-2.2-0.99-2.2-2.2v-0.29c0-1.21,0.99-2.2,2.2-2.2h63.63c1.21,0,2.2,0.99,2.2,2.2
				v0.29C283.32,89.11,282.33,90.1,281.12,90.1z"/>
			<path class="st10" d="M299.89,87.6c0,1.55-1.26,2.81-2.81,2.81c-1.55,0-2.81-1.26-2.81-2.81c0-1.55,1.26-2.81,2.81-2.81
				C298.63,84.79,299.89,86.05,299.89,87.6z"/>
		</g>
	</g>
	<g>
		<g>
			<path class="st11" d="M141.53,314.28c-0.29,5.42-0.62,11.26-0.96,17.35c-2.03,35.6-4.76,79.51-5.59,96.61l-6.55,0.43
				c0,0-3.85-46.28-3.83-62.19c0.01-6.62-0.61-16.82-1.45-28.17c-0.57-7.75-1.25-16.03-1.9-24.06L141.53,314.28z"/>
			<path class="st12" d="M141.53,314.28c-0.29,5.42-0.68,12.35-1.03,18.43c-4.04,2.32-10.67,4.5-17.35,5.58
				c-0.57-7.75-1.25-16.03-1.9-24.06L141.53,314.28z"/>
			<g>
				<g>
					<path class="st4" d="M131,424.7c0,0,3.88-0.85,4.94-0.78c1.06,0.07,7.8,8.32,10.17,8.9c4.3,1.04,4,7.81,1.35,8.03
						c-7.67,0.63-20.58-3.17-20.58-3.17s-0.82-8.74-0.17-11.44C127.35,423.53,128.83,425.41,131,424.7z"/>
					<g>
						<g>
							<path class="st7" d="M136.98,432.4c-0.14,0.02-0.28-0.01-0.41-0.1c-0.23-0.17-0.28-0.5-0.11-0.74
								c0.06-0.08,1.44-1.93,3.07-2.52c2.17-0.79,3.63,0.56,3.7,0.61c0.21,0.2,0.22,0.54,0.02,0.75c-0.2,0.21-0.54,0.22-0.75,0.02
								c-0.04-0.04-1.06-0.95-2.61-0.39c-1.33,0.48-2.57,2.14-2.58,2.16C137.23,432.3,137.11,432.37,136.98,432.4z"/>
						</g>
						<g>
							<path class="st7" d="M135.59,430.73c-0.14,0.02-0.28-0.01-0.4-0.1c-0.23-0.17-0.28-0.5-0.11-0.74
								c0.06-0.08,1.44-1.93,3.07-2.52c2.18-0.79,3.63,0.56,3.7,0.61c0.21,0.2,0.22,0.54,0.02,0.75c-0.2,0.21-0.54,0.22-0.75,0.02
								c-0.04-0.04-1.06-0.95-2.61-0.39c-1.34,0.49-2.57,2.14-2.58,2.16C135.84,430.64,135.72,430.71,135.59,430.73z"/>
						</g>
						<g>
							<path class="st7" d="M138.96,433.85c-0.14,0.02-0.28-0.01-0.4-0.1c-0.23-0.17-0.28-0.5-0.11-0.74
								c0.06-0.08,1.44-1.93,3.07-2.53c2.17-0.79,3.63,0.56,3.7,0.61c0.21,0.2,0.22,0.54,0.02,0.75c-0.2,0.21-0.54,0.22-0.75,0.02
								c-0.04-0.04-1.06-0.95-2.61-0.39c-1.34,0.49-2.57,2.14-2.58,2.16C139.21,433.76,139.09,433.83,138.96,433.85z"/>
						</g>
					</g>
				</g>
			</g>
		</g>
		<g>
			<path class="st11" d="M117.51,314.22c-0.65,8.04-1.33,16.33-1.9,24.08c-0.01,0.06-0.01,0.11-0.01,0.17
				c-0.03,0.36-0.05,0.72-0.08,1.08c-0.79,10.84-1.37,20.54-1.36,26.91c0.02,15.92-3.83,62.19-3.83,62.19l-7.61-0.5
				c-0.76-15.85-2.79-54.74-4.45-88.68c-0.02-0.4-0.04-0.8-0.06-1.2c-0.02-0.33-0.03-0.66-0.05-0.99c-0.4-8.16-0.77-16-1.1-23.12
				L117.51,314.22z"/>
			<path class="st12" d="M117.51,314.22c-0.65,8.04-1.33,16.33-1.9,24.08c-0.01,0.06-0.01,0.11-0.01,0.17
				c-4.92,0.33-12.27-0.12-17.43-1.19c-0.4-8.16-0.77-16-1.1-23.12L117.51,314.22z"/>
			<g>
				<g>
					<path class="st4" d="M103.78,426.83c0,0-1.75-2.46-3.18-2.38c-1.43,0.07-12.64,8.59-16.43,9.23c-3.79,0.64-3.12,3.44-2.46,4.87
						c0.66,1.44,30.12,0.13,30.12,0.13s1-8.74,0.1-11.44C111.04,424.54,106.72,427.53,103.78,426.83z"/>
					<g>
						<g>
							<path class="st7" d="M97.56,432.81c0.13,0.04,0.28,0.03,0.41-0.04c0.26-0.14,0.35-0.46,0.21-0.72
								c-0.05-0.09-1.16-2.11-2.69-2.93c-2.04-1.09-3.68,0.04-3.75,0.09c-0.24,0.17-0.29,0.5-0.13,0.74
								c0.17,0.24,0.5,0.29,0.74,0.13c0.04-0.03,1.18-0.79,2.64-0.02c1.25,0.66,2.25,2.48,2.26,2.5
								C97.32,432.68,97.43,432.77,97.56,432.81z"/>
						</g>
						<g>
							<path class="st7" d="M99.17,431.36c0.13,0.04,0.28,0.03,0.41-0.04c0.26-0.14,0.35-0.46,0.21-0.72
								c-0.05-0.09-1.16-2.11-2.69-2.93c-2.04-1.09-3.68,0.04-3.75,0.09c-0.24,0.17-0.29,0.5-0.13,0.74
								c0.17,0.24,0.5,0.29,0.74,0.13c0.04-0.03,1.18-0.79,2.64-0.02c1.26,0.67,2.25,2.48,2.26,2.5
								C98.93,431.23,99.04,431.32,99.17,431.36z"/>
						</g>
						<g>
							<path class="st7" d="M95.39,433.97c0.13,0.04,0.28,0.03,0.41-0.04c0.26-0.14,0.35-0.46,0.21-0.72
								c-0.05-0.09-1.16-2.11-2.69-2.93c-2.04-1.09-3.68,0.04-3.75,0.09c-0.24,0.17-0.29,0.5-0.13,0.74
								c0.17,0.24,0.5,0.29,0.74,0.13c0.04-0.03,1.18-0.79,2.64-0.02c1.26,0.67,2.25,2.48,2.26,2.5
								C95.16,433.84,95.27,433.93,95.39,433.97z"/>
						</g>
					</g>
				</g>
			</g>
		</g>
		<path class="st5" d="M94.93,218.25c5.44,4.83,11.82,2.67,19.95-1.47c8.13-4.13,2.92,3.99,10.89,5.38
			c7.97,1.38,7.04-18.35,7.58-28.21c0.34-6.18,2.79-13.96,2.79-17.09v-0.04c0.04-0.52,0.07-1.04,0.07-1.55
			c0.06-7.51-4.57-21.21-20.84-19.03c0,0-13.5,1.54-15.04,14.74c0,0-0.64,6.09-1.07,10.5c-1.21,12.48-5.81,5.98-4.33,21.19
			C95.42,207.69,88.57,212.6,94.93,218.25z"/>
		<g>
			<g>
				<path class="st9" d="M144.42,208.5c0,0,2.88,24.43,6.16,36.13c0,0,4.67-2.18,10.78-5.13c6.63-3.2,16.16-9.04,16.16-9.04
					l2.41,5.8c0,0-24.61,23.23-32.77,24.55c-8.15,1.32-13.15-27.88-13.15-27.88L144.42,208.5z"/>
				<path class="st11" d="M177.02,231.14c0,0-0.68-3.24,0.77-5.43c1.45-2.19,3.66-6.3,6.25-7.15c2.17-0.72-1.03,2.94-1.13,5.26
					c0,0,3.22-0.4,5.55-1.16c2.05-0.66,6.09-1.49,7.97-1.86c0.51-0.1,0.84,0.55,0.45,0.89c-0.64,0.55-1.98,1.25-4.74,1.92
					c0,0,6.74-1.28,7.44-0.24c0.7,1.03-7.76,2.47-7.76,2.47s6.56-0.39,6.73,0.64c0.1,0.63-6.7,2.06-6.7,2.06s6.2,0.17,4.7,1.15
					c-0.44,0.29-12.45,1.64-16.63,6.58C179.93,236.26,177.12,233.35,177.02,231.14z"/>
			</g>
			<g>
				<g>
					<path class="st1" d="M172.78,233.04c-0.33,0.28-0.67,0.57-1.01,0.85c-0.83-0.31-1.67-0.4-2.52-0.27
						c-0.64,0.1-1.29,0.32-1.96,0.66c-2.62,1.36-4.33,4.01-5.41,7.3c-1.66,5.08-1.83,11.68-1.51,17.39
						c0.38,6.8,1.38,11.91,1.4,12.05l-1.19,0.13c-0.1-0.51-0.96-4.93-1.38-11.14c-0.37-5.47-0.32-11.94,1.09-17.27
						c1.12-4.25,3.11-7.78,6.44-9.5c1.74-0.9,3.46-1.08,5.13-0.55C172.19,232.78,172.49,232.9,172.78,233.04z"/>
					<path class="st1" d="M185.8,260.37l-1.16,0.22c-0.03-0.17-3.02-13.62-7.74-21.53c0.4-0.48,0.65-0.58,0.97-0.88
						C182.84,246.19,185.66,259.65,185.8,260.37z"/>
				</g>
				<g>
					<path class="st3" d="M172.9,233.22c-0.37,0.22-0.84,0.5-1.13,0.68c0.01,0,0.01,0.01,0.02,0.01c-0.02,0-0.03,0.01-0.04,0.01
						c-0.55,0.11-1.1,0.31-1.67,0.61c-1.63,0.84-2.91,2.19-3.9,3.89c-2.66,4.53-3.27,11.54-3.12,17.95
						c0.18,8.04,1.56,15.15,1.59,15.3l-1.16,0.23c-0.12-0.58-1.34-6.91-1.62-14.34c-0.22-5.95,0.17-12.59,2.22-17.57
						c1.15-2.77,2.8-5.03,5.16-6.35c0.09-0.06,0.19-0.11,0.29-0.16c0.78-0.41,1.57-0.66,2.34-0.78c0.46-0.07,1.27,0.08,1.72,0.12
						C173.45,232.94,173.18,233.05,172.9,233.22z"/>
					<path class="st3" d="M188.59,260.6l-1.16,0.22c-0.03-0.19-3.18-15.91-8.8-23.35c0.41-0.41,0.47-0.43,0.88-0.81
						C185.42,244.23,188.44,259.82,188.59,260.6z"/>
				</g>
				<polygon class="st1" points="204.96,304.9 203.03,307 168.01,318.44 159.31,271.59 161.29,269.77 161.91,270.27 185.57,258.3 
					201.19,301.86 				"/>
				<polygon class="st3" points="161.24,269.49 187.5,256.2 204.96,304.9 169.94,316.34 				"/>
			</g>
		</g>
		<g>
			<g>
				<g>
					<path class="st9" d="M49.03,279.03c-0.31,0.13-0.61,0.28-0.91,0.46c-3.23,1.91-5.02,5.55-5.89,9.85
						c-1.11,5.4-0.78,11.86-0.11,17.3c0.77,6.18,1.88,10.55,2,11.05l1.18-0.2c-0.03-0.13-1.32-5.18-2.08-11.95
						c-0.64-5.68-0.86-12.28,0.52-17.44c0.78-2.94,2.08-5.42,4.11-7c0.19-0.3,0.42-0.56,0.68-0.77c0.15-0.12,0.32-0.23,0.5-0.33
						V279.03z"/>
					<path class="st9" d="M68.67,305.51l-1.15,0.28c-0.04-0.17-3.27-13.01-8.42-20.64c0.25-0.36,0.48-0.7,0.71-1.04
						C65.24,291.84,68.49,304.8,68.67,305.51z"/>
				</g>
				<g>
					<path class="st4" d="M47.02,283.73c-0.11,0.92-0.1,1.92,0,2.88c-1.62,4.56-1.72,10.61-1.28,16.18
						c0.64,8.02,2.42,15.04,2.46,15.18l-1.15,0.3c-0.15-0.57-1.73-6.82-2.43-14.23c-0.56-5.92-0.55-12.58,1.22-17.67
						C46.17,285.43,46.56,284.54,47.02,283.73z"/>
					<path class="st4" d="M71.47,305.59l-1.15,0.28c-0.05-0.18-3.89-15.51-9.91-22.62c0.24-0.35,0.47-0.68,0.68-1
						C67.42,289.47,71.28,304.81,71.47,305.59z"/>
				</g>
				<g>
					<polygon class="st9" points="91.22,349.7 89.29,352.06 52.65,366.48 40.4,317.05 42.4,314.98 43.09,315.47 71.73,303.74 
						87,346.7 					"/>
					<polygon class="st4" points="42.4,314.98 71.73,303.74 91.22,349.7 54.57,364.12 					"/>
				</g>
			</g>
			<g>
				<path class="st9" d="M93.5,206.86c0,0-5.05,38.32-9.86,46.88c0,0-15.21,19.67-23.29,26.38c1.13,3.23,2.87,5.47,5.46,6.86
					c0,0,22.47-16.85,28.12-26.14c6.21-9.96,9.11-26.76,9.29-33.64C103.22,227.21,99.48,216.25,93.5,206.86z"/>
				<path class="st11" d="M57.9,287.6c0.18,0.1-0.61,0.52-0.48,1.95c0.09,0.97,6.01,0.8,8.38-2.56l-5.46-6.86
					c0,0-7.87-2.49-11.12-1.39c-3.25,1.1-4.78,8.92-3.24,10.7c0,0,0.07,0.29,0.87-0.03c0,0,0.7,1.35,1.92,1.45
					c1.21,0.09,1.77-1.21,1.77-1.21s0.23,1.49,1.4,1.68c1.17,0.19,1.72-1.68,1.72-1.68s0.79,1.88,1.93,1.69
					C57.33,291.04,57.19,287.2,57.9,287.6z"/>
			</g>
			<g>
				<g>
					<path class="st1" d="M54.2,278.7c-1.87-0.28-3.74-0.38-4.97,0.04c-0.32,0.11-0.62,0.28-0.9,0.5c-2.44,0.82-4.48,2.72-6.2,5.24
						c-3.01,4.42-4.99,10.72-6.27,16.29c-1.52,6.64-1.98,11.83-1.99,11.96l-1.18-0.2c0.04-0.51,0.45-5,1.77-11.09
						c1.16-5.36,3-11.56,5.83-16.29c2.25-3.77,5.15-6.61,8.82-7.34C51.04,277.42,52.74,277.72,54.2,278.7z"/>
					<path class="st1" d="M59.89,309.16l-1.18-0.12c0.02-0.17,1.19-12.35-1.15-21.25c0.42-0.8,0.96-0.93,1.31-0.8
						C61.44,296.06,59.96,308.43,59.89,309.16z"/>
				</g>
				<g>
					<path class="st3" d="M46.68,281.43c-0.41,0.83-0.73,1.77-0.95,2.72c-3.04,3.76-5.14,9.44-6.57,14.85
						c-2.05,7.78-2.7,14.99-2.71,15.14l-1.18-0.1c0.05-0.59,0.63-7.01,2.42-14.23c1.43-5.77,3.65-12.05,7-16.27
						C45.32,282.76,45.98,282.05,46.68,281.43z"/>
					<path class="st3" d="M62.51,310.16l-1.18-0.11c0.02-0.19,1.47-15.93-1.86-24.63c0.25-0.55,0.6-0.72,0.97-0.72
						C64.03,293.61,62.59,309.36,62.51,310.16z"/>
				</g>
				<g>
					<polygon class="st1" points="66.53,358.32 63.93,359.91 23.64,361.42 28.4,311.18 31.97,309.39 32.46,310.09 63.37,308.51 
						63.55,354.09 					"/>
					<polygon class="st3" points="31.97,309.39 63.37,308.51 66.53,358.32 27.18,359.79 					"/>
				</g>
			</g>
		</g>
		<g>
			<g>
				<path class="st4" d="M143.9,296.83l0.11,0.49c-10.72,7.26-50.83,2.3-50.83,2.3c0.07-0.84,0.16-1.72,0.28-2.63
					c0.13-1.01,0.28-2.07,0.46-3.15c0.48-2.92,1.13-6.08,1.86-9.33c0.23-1.02,0.47-2.06,0.72-3.1c0.72-3.1,1.49-6.24,2.22-9.31
					c0.25-1.05,0.5-2.09,0.74-3.12c0.33-1.43,0.65-2.84,0.95-4.21c0.4-1.82,0.75-3.56,1.04-5.21c0.2-1.11,0.37-2.17,0.5-3.17
					c0.15-1.07,0.26-2.07,0.32-3.01c-0.64-2.36-1.23-4.66-1.79-6.9c-0.28-1.14-0.55-2.25-0.81-3.36c-0.82-3.53-1.55-6.88-2.18-10.03
					c-0.22-1.14-0.45-2.25-0.65-3.34c-0.7-3.71-1.27-7.06-1.72-9.99c-0.18-1.17-0.34-2.26-0.49-3.28c-0.16-1.12-0.3-2.16-0.42-3.11
					c-0.54-4.15-0.72-6.51-0.72-6.51c0.09-0.08,0.19-0.15,0.3-0.22c1.22-0.86,3.12-1.68,5.23-2.4c2.23-0.76,4.7-1.43,6.87-1.96
					c0.33-0.08,0.65-0.16,0.97-0.23c2.86-0.67,5-1.06,5-1.06c9.73,2.04,12.5,0.73,12.5,0.73l4.94,1.46l0.58,0.2l3.6,1.26l0.15,0.05
					l6.46,2.27l4.31,1.51l-1.67,7.71l-0.73,3.37l-2.2,10.15l-0.72,3.36l-2.19,10.12l-0.72,3.32l-1.82,8.38l0.36,1.6l0.71,3.11
					l1.12,4.94l1.02,4.47l0.7,3.1l2.12,9.32l0.71,3.08l2.1,9.21L143.9,296.83z"/>
				<path class="st11" d="M129.9,203.39c-1.04,6.08-3.56,14.23-9.69,14.89c-7.4,0.8-11.66-10.52-13.33-16.22
					c2.86-0.67,5.82-1.32,5.82-1.32c9.73,2.04,11.6,0.8,11.6,0.8l5.02,1.65L129.9,203.39z"/>
				<g>
					<path class="st7" d="M119.03,211.14c-7.76,0-9.61-9.58-9.63-9.68c-0.04-0.21,0.1-0.41,0.31-0.45c0.21-0.04,0.41,0.1,0.45,0.31
						c0.07,0.38,1.83,9.43,9.33,9.04c6.56-0.33,6.95-7.62,6.96-7.93c0.01-0.21,0.18-0.38,0.4-0.37c0.21,0.01,0.37,0.19,0.37,0.4
						c0,0.08-0.42,8.29-7.69,8.66C119.36,211.14,119.19,211.14,119.03,211.14z"/>
				</g>
				<path class="st9" d="M105.11,208.5c0,1.05-0.85,1.89-1.89,1.89c-1.05,0-1.89-0.85-1.89-1.89c0-1.05,0.85-1.89,1.89-1.89
					C104.27,206.61,105.11,207.46,105.11,208.5z"/>
				<path class="st9" d="M101.32,217.74c0,1.05-0.85,1.89-1.89,1.89s-1.89-0.85-1.89-1.89s0.85-1.89,1.89-1.89
					S101.32,216.7,101.32,217.74z"/>
				<path class="st9" d="M113.41,222.11c0,1.05-0.85,1.89-1.89,1.89c-1.05,0-1.89-0.85-1.89-1.89c0-1.05,0.85-1.89,1.89-1.89
					C112.57,220.22,113.41,221.06,113.41,222.11z"/>
				<path class="st9" d="M104.98,227.28c0.39,0.97-0.08,2.07-1.06,2.46c-0.97,0.39-2.07-0.08-2.46-1.06
					c-0.39-0.97,0.08-2.07,1.06-2.46C103.49,225.83,104.59,226.3,104.98,227.28z"/>
				<path class="st9" d="M121.4,230.77c0,1.05-0.85,1.89-1.89,1.89c-1.05,0-1.89-0.85-1.89-1.89s0.85-1.89,1.89-1.89
					C120.55,228.88,121.4,229.73,121.4,230.77z"/>
				<path class="st9" d="M133.47,234.68c0,1.05-0.85,1.89-1.89,1.89s-1.89-0.85-1.89-1.89s0.85-1.89,1.89-1.89
					S133.47,233.63,133.47,234.68z"/>
				<circle class="st9" cx="134.01" cy="210.4" r="1.89"/>
				<path class="st9" d="M122.16,242.87c0,1.05-0.85,1.89-1.89,1.89s-1.89-0.85-1.89-1.89c0-1.05,0.85-1.89,1.89-1.89
					S122.16,241.82,122.16,242.87z"/>
				<path class="st9" d="M110.5,248.74c0,1.05-0.85,1.89-1.89,1.89s-1.89-0.85-1.89-1.89c0-1.05,0.85-1.89,1.89-1.89
					S110.5,247.69,110.5,248.74z"/>
				<path class="st9" d="M109.14,238.05c0,1.05-0.85,1.89-1.89,1.89s-1.89-0.85-1.89-1.89s0.85-1.89,1.89-1.89
					S109.14,237,109.14,238.05z"/>
				<path class="st9" d="M127.79,222.61c0,1.05-0.85,1.89-1.89,1.89c-1.05,0-1.89-0.85-1.89-1.89c0-1.05,0.85-1.89,1.89-1.89
					C126.95,220.71,127.79,221.56,127.79,222.61z"/>
				<path class="st9" d="M138.26,220.22c0,1.05-0.85,1.89-1.89,1.89c-1.05,0-1.89-0.85-1.89-1.89c0-1.05,0.85-1.89,1.89-1.89
					C137.42,218.32,138.26,219.17,138.26,220.22z"/>
				<path class="st9" d="M131.58,246c0,1.05-0.85,1.89-1.89,1.89s-1.89-0.85-1.89-1.89c0-1.05,0.85-1.89,1.89-1.89
					S131.58,244.95,131.58,246z"/>
				<path class="st9" d="M132.09,260.98c0,1.05-0.85,1.89-1.89,1.89c-1.05,0-1.89-0.85-1.89-1.89c0-1.05,0.85-1.89,1.89-1.89
					C131.24,259.09,132.09,259.94,132.09,260.98z"/>
				<path class="st9" d="M122.45,254.73c0.39,0.97-0.08,2.07-1.06,2.46c-0.97,0.39-2.07-0.08-2.46-1.06
					c-0.39-0.97,0.08-2.07,1.06-2.46C120.96,253.29,122.06,253.76,122.45,254.73z"/>
				<path class="st9" d="M109.56,260.28c0.39,0.97-0.08,2.07-1.06,2.46c-0.97,0.39-2.07-0.08-2.46-1.06
					c-0.39-0.97,0.08-2.07,1.06-2.46C108.07,258.84,109.17,259.31,109.56,260.28z"/>
			</g>
			<path class="st4" d="M148.34,323.27c-17.23,10.78-43.29,9.72-58.4,2.63l0.46-3.73l0.39-3.17l1.16-9.4l0.39-3.17l0.84-6.8
				l13.02-0.59l35.16-1.59l2.65-0.12l1.46,8.75l0.52,3.14l1.53,9.15l0.52,3.15L148.34,323.27z"/>
			<g>
				<path class="st3" d="M148.34,323.27c-17.23,10.79-43.29,9.73-58.39,2.64l0.45-3.74l0.13-1.06l0.25-2.1l0.06-0.48l0.18-1.49
					l0.92-7.44l0.07-0.63l0.18-1.48l0.13-1.06l0.84-6.8c0-0.07,0.01-0.13,0.01-0.21c0.04-0.49,0.1-0.98,0.15-1.49
					c0.04-0.3,0.07-0.61,0.12-0.92c0.12-1.03,0.27-2.07,0.45-3.16c0.21-1.25,0.45-2.55,0.72-3.88c0.09-0.48,0.19-0.95,0.3-1.45
					c0.27-1.31,0.55-2.64,0.85-4c0.24-1.01,0.48-2.06,0.72-3.1c0.06-0.25,0.12-0.49,0.18-0.75c0.12-0.48,0.22-0.97,0.34-1.46
					c0.57-2.37,1.15-4.76,1.7-7.1c0.06-0.24,0.12-0.46,0.16-0.7c0.12-0.49,0.24-0.98,0.36-1.48c0.07-0.31,0.15-0.63,0.22-0.94
					c0.33-1.43,0.66-2.85,0.95-4.21c6.71,1.51,21.86,4.01,36.15-0.21l0.91,4.01l0.1,0.46l0.22,1.01l0.48,2.09l1.3,5.71l0.34,1.48
					l0.48,2.12l0.7,3.09l0.58,2.58l0.34,1.48l1.18,5.16l0.6,2.64l0.1,0.43l0.12,0.49l0.09,0.57l1.33,7.98l0.03,0.19l0.22,1.31
					l0.3,1.82l1.03,6.16l0.25,1.49l0.25,1.51l0.03,0.22l0.49,2.92L148.34,323.27z"/>
				<g>
					<g>
						<path class="st1" d="M137.79,270.05c-5.89,2.52-12.9,3.33-19.48,3.33c-7.97,0-15.34-1.18-19.44-1.98
							c0.12-0.49,0.24-0.98,0.36-1.48c7.44,1.43,25.76,4.07,38.24-1.34l0.1,0.46L137.79,270.05z"/>
					</g>
					<g>
						<path class="st1" d="M139.91,279.33c-6.86,2.86-14.6,3.79-21.75,3.79c-9.03,0-17.16-1.48-21.5-2.46
							c0.12-0.48,0.22-0.97,0.34-1.46c7.7,1.67,27.57,4.98,42.56-1.34L139.91,279.33z"/>
					</g>
					<g>
						<path class="st1" d="M142.02,288.6c-7.74,3.15-16.2,4.19-23.94,4.19c-10.03,0-18.84-1.73-23.45-2.83
							c0.09-0.48,0.19-0.95,0.3-1.45c8,1.91,29.27,5.83,46.75-1.39L142.02,288.6z"/>
					</g>
					<g>
						<path class="st1" d="M144.1,297.89c-8.73,3.48-17.92,4.62-26.23,4.62c-10.55,0-19.68-1.83-24.69-3.1
							c0.04-0.49,0.1-0.98,0.15-1.49c8.67,2.19,30.84,6.43,50.45-1.52l0.1,0.43l0.12,0.49L144.1,297.89z"/>
					</g>
					<g>
						<path class="st1" d="M145.69,307.38c-9.55,3.65-19.29,4.88-28.03,4.88c-10.88,0-20.2-1.88-25.63-3.3l0.18-1.48
							c9.53,2.48,31.95,6.67,53.23-1.61l0.03,0.19L145.69,307.38z"/>
					</g>
					<g>
						<path class="st1" d="M147.27,316.85c-10.34,3.85-20.66,5.13-29.84,5.13c-11.25,0-20.78-1.92-26.58-3.46l0.18-1.49
							c10.28,2.74,33.1,6.92,55.99-1.67L147.27,316.85z"/>
					</g>
				</g>
				<path class="st1" d="M148.34,323.27c-17.23,10.78-43.29,9.72-58.4,2.63l0.46-3.74l0.13-1.06c4.1,1.77,13.54,4.93,28.61,4.82
					c14.26-0.11,23.79-4.53,28.42-7.35l0.49,2.93L148.34,323.27z"/>
			</g>
		</g>
		<g>
			<g>
				<g>
					<path class="st12" d="M130.62,177.72c0,0,2.32-2.95,4.05-0.51c1.73,2.44-0.72,9.63-4.95,7.87L130.62,177.72z"/>
					<path class="st7" d="M131.62,184.58c0,0.43,0.35,0.77,0.77,0.77c0.43,0,0.77-0.35,0.77-0.77c0-0.43-0.35-0.77-0.77-0.77
						C131.96,183.81,131.62,184.15,131.62,184.58z"/>
					<g>
						<path class="st13" d="M130.65,182.86c0.16,0,0.3-0.1,0.34-0.25c0.66-2.22,3.08-3.12,3.1-3.13c0.18-0.07,0.28-0.26,0.21-0.44
							c-0.07-0.18-0.28-0.26-0.46-0.2c-0.11,0.04-2.78,1.02-3.54,3.58c-0.05,0.18,0.06,0.37,0.25,0.42
							C130.58,182.85,130.61,182.86,130.65,182.86z"/>
					</g>
					<g>
						<path class="st13" d="M133.09,181.74c0.07,0,0.13-0.02,0.19-0.05c0.17-0.1,0.21-0.31,0.11-0.47
							c-0.02-0.03-0.45-0.65-1.34-1.03c-0.18-0.08-0.39,0-0.47,0.17c-0.08,0.17,0,0.37,0.18,0.45c0.69,0.29,1.03,0.77,1.03,0.78
							C132.86,181.69,132.97,181.74,133.09,181.74z"/>
					</g>
				</g>
				<path class="st11" d="M112.69,192.77v8.82c0,0,4.1,3.16,7.3,3.44c3.2,0.28,4.3-3.49,4.3-3.49v-8.21L112.69,192.77z"/>
				<path class="st12" d="M112.69,193.63v3.52c2.15,2.38,5.96,3.23,11.6,2.39l0-5.36L112.69,193.63z"/>
				<path class="st11" d="M132.01,181.07c-0.1,0.85-0.22,1.72-0.38,2.58c-1.01,5.74-4.64,11.94-9.23,12.98
					c-9.9,2.25-14.01-5.53-15.59-11.26c-0.17-0.64,0.15-1.37,0.01-2.12c-0.33-1.79-1.05-3.82-1.21-5.82
					c-0.11-1.39-0.19-2.76-0.25-3.99c-0.16-3.49,1.86-6.69,5.02-7.94c4.55-1.81,11.46-3.24,18,0.6c2.42,1.42,3.93,4.04,3.99,6.91
					C132.42,175.2,132.36,178.07,132.01,181.07z"/>
				<g>
					<g>
						<g>
							<path class="st12" d="M119.94,185.51c-0.18,0-0.35-0.13-0.38-0.32c-0.04-0.21,0.11-0.41,0.32-0.44l1.32-0.22l-1.82-4.84
								c-0.07-0.2,0.03-0.42,0.22-0.49c0.2-0.07,0.42,0.03,0.49,0.22l2.15,5.72l-2.24,0.38
								C119.98,185.51,119.96,185.51,119.94,185.51z"/>
						</g>
					</g>
				</g>
				<path class="st5" d="M128.2,171.41c3.87,1.76,2.64,6.36,3.95,8.67c0.08,0.15,0.17,0.18,0.27,0.1c0.37-3.06,0.43-5.99,0.38-8.22
					c-0.06-2.93-1.66-5.6-4.2-7.05c-6.9-3.91-14.18-2.45-18.98-0.61c-3.33,1.28-5.46,4.54-5.29,8.1c0.06,1.26,0.15,2.66,0.27,4.07
					c0.64,0.38,2.21,0.56,2.28,1.59c0.17,2.73,0.31,4.6,0.88,4.43c0.96-0.28,1.56-3.58,0.46-5.72c0,0,0.88-1.44,4.49-2.83
					c4.62-1.78,9.07-4.42,9.07-4.42s1.76-1.06,2.43-2.21C124.2,167.31,125.26,170.06,128.2,171.41z"/>
				<path class="st5" d="M124.44,179.1c0,0.85,0.44,1.53,0.97,1.53c0.54,0,0.97-0.69,0.97-1.53c0-0.85-0.44-1.53-0.97-1.53
					C124.87,177.57,124.44,178.26,124.44,179.1z"/>
				<path class="st5" d="M113.9,179.1c0,0.85,0.44,1.53,0.97,1.53c0.54,0,0.97-0.69,0.97-1.53c0-0.85-0.44-1.53-0.97-1.53
					C114.34,177.57,113.9,178.26,113.9,179.1z"/>
				<path class="st5" d="M128.04,175.08c-0.78-0.15-2.37-0.4-4.06-0.35c-0.44,0.02-0.8,0.35-0.74,0.7l0,0.01
					c0.05,0.28,0.35,0.47,0.71,0.45c1.15-0.09,4.16-0.07,5.56,0.35c0.04-0.2-0.1-0.42-0.29-0.61
					C128.92,175.35,128.5,175.17,128.04,175.08z"/>
				<path class="st5" d="M112.37,175.27c0.78-0.16,2.36-0.44,4.05-0.4c0.44,0.01,0.8,0.34,0.75,0.69l0,0.01
					c-0.04,0.28-0.34,0.48-0.7,0.46c-1.15-0.07-4.16-0.01-5.56,0.43c-0.04-0.2,0.09-0.42,0.29-0.61
					C111.49,175.55,111.91,175.36,112.37,175.27z"/>
				<path class="st7" d="M124.2,187.8c-0.28,1.35-1.23,3.83-4.42,3.83c-3.2,0-4.1-2.27-4.4-3.83H124.2z"/>
				<g>
					<path class="st12" d="M119.82,193.95c0.92,0,1.73-0.5,1.77-0.52c0.18-0.11,0.23-0.34,0.12-0.52c-0.11-0.18-0.34-0.23-0.52-0.12
						l0,0c-0.01,0-0.67,0.4-1.37,0.4c-0.76,0-1.44-0.4-1.45-0.41c-0.18-0.11-0.41-0.05-0.52,0.13c-0.11,0.18-0.05,0.41,0.13,0.52
						C118.02,193.45,118.85,193.95,119.82,193.95z"/>
				</g>
			</g>
			<g>
				<path class="st11" d="M106.78,177.69c0,0-2.7-3.28-4.3-0.91c-1.6,2.37,0.66,9.35,4.56,7.65L106.78,177.69z"/>
				<path class="st7" d="M104.59,184.58c0,0.43,0.35,0.77,0.77,0.77s0.77-0.35,0.77-0.77c0-0.43-0.35-0.77-0.77-0.77
					S104.59,184.15,104.59,184.58z"/>
				<g>
					<path class="st12" d="M106.19,182.27c-0.14,0-0.28-0.1-0.32-0.24c-0.61-2.16-2.84-3.03-2.86-3.04
						c-0.17-0.06-0.26-0.26-0.19-0.43c0.06-0.17,0.25-0.26,0.43-0.19c0.1,0.04,2.57,1,3.26,3.48c0.05,0.18-0.05,0.36-0.23,0.41
						C106.25,182.26,106.22,182.27,106.19,182.27z"/>
				</g>
				<g>
					<g>
						<g>
							<path class="st12" d="M103.94,181.18c-0.06,0-0.12-0.02-0.18-0.05c-0.15-0.1-0.2-0.3-0.1-0.46c0.02-0.03,0.41-0.63,1.24-1
								c0.17-0.07,0.36,0,0.44,0.17c0.07,0.17,0,0.36-0.17,0.44c-0.64,0.29-0.95,0.75-0.95,0.75
								C104.15,181.13,104.04,181.18,103.94,181.18z"/>
						</g>
					</g>
				</g>
			</g>
		</g>
	</g>
	<g>
		<g>
			<path class="st4" d="M422.73,206.46h-100c-1.45,0-2.62-1.17-2.62-2.62v-16.51c0-1.45,1.17-2.62,2.62-2.62h100
				c1.45,0,2.62,1.17,2.62,2.62v16.51C425.36,205.29,424.18,206.46,422.73,206.46z"/>
			<path class="st14" d="M414.28,201.32h-0.76c-3.2,0-5.79-2.59-5.79-5.79v-0.76c0-3.2,2.59-5.79,5.79-5.79h0.76
				c3.2,0,5.79,2.59,5.79,5.79v0.76C420.07,198.73,417.48,201.32,414.28,201.32z"/>
			<g>
				<path class="st14" d="M397.41,191.31h-69.42c-0.61,0-1.1-0.49-1.1-1.1v-0.14c0-0.61,0.49-1.1,1.1-1.1h69.42
					c0.61,0,1.1,0.49,1.1,1.1v0.14C398.51,190.82,398.01,191.31,397.41,191.31z"/>
				<path class="st14" d="M397.41,196.32h-69.42c-0.61,0-1.1-0.49-1.1-1.1v-0.14c0-0.61,0.49-1.1,1.1-1.1h69.42
					c0.61,0,1.1,0.49,1.1,1.1v0.14C398.51,195.83,398.01,196.32,397.41,196.32z"/>
				<path class="st14" d="M397.41,201.32h-69.42c-0.61,0-1.1-0.49-1.1-1.1v-0.14c0-0.61,0.49-1.1,1.1-1.1h69.42
					c0.61,0,1.1,0.49,1.1,1.1v0.14C398.51,200.83,398.01,201.32,397.41,201.32z"/>
			</g>
		</g>
		<g>
			<path class="st3" d="M423.26,238.39h-100c-1.45,0-2.62-1.17-2.62-2.62v-16.51c0-1.45,1.17-2.62,2.62-2.62h100
				c1.45,0,2.62,1.17,2.62,2.62v16.51C425.88,237.22,424.71,238.39,423.26,238.39z"/>
			<path class="st15" d="M414.28,233.68h-0.76c-3.2,0-5.79-2.59-5.79-5.79v-0.76c0-3.2,2.59-5.79,5.79-5.79h0.76
				c3.2,0,5.79,2.59,5.79,5.79v0.76C420.07,231.09,417.48,233.68,414.28,233.68z"/>
			<g>
				<g>
					<path class="st15" d="M397.41,223.68h-69.42c-0.61,0-1.1-0.49-1.1-1.1v-0.14c0-0.61,0.49-1.1,1.1-1.1h69.42
						c0.61,0,1.1,0.49,1.1,1.1v0.14C398.51,223.19,398.01,223.68,397.41,223.68z"/>
					<path class="st15" d="M397.41,228.68h-69.42c-0.61,0-1.1-0.49-1.1-1.1v-0.14c0-0.61,0.49-1.1,1.1-1.1h69.42
						c0.61,0,1.1,0.49,1.1,1.1v0.14C398.51,228.19,398.01,228.68,397.41,228.68z"/>
					<path class="st15" d="M397.41,233.69h-69.42c-0.61,0-1.1-0.49-1.1-1.1v-0.14c0-0.61,0.49-1.1,1.1-1.1h69.42
						c0.61,0,1.1,0.49,1.1,1.1v0.14C398.51,233.2,398.01,233.69,397.41,233.69z"/>
				</g>
			</g>
		</g>
	</g>
	<g>
		<g>
			<g>
				<path class="st3" d="M395.04,142.97c0-3.13,2.54-5.67,5.67-5.67s5.67,2.54,5.67,5.67c0,3.13-2.54,5.67-5.67,5.67
					S395.04,146.1,395.04,142.97z M396.82,142.97c0,2.15,1.75,3.89,3.89,3.89c2.15,0,3.89-1.75,3.89-3.89
					c0-2.15-1.75-3.89-3.89-3.89C398.56,139.08,396.82,140.83,396.82,142.97z"/>
			</g>
			<g>
				<path class="st3" d="M405.1,118.9c0-3.13,2.54-5.67,5.67-5.67s5.67,2.54,5.67,5.67c0,3.13-2.54,5.67-5.67,5.67
					S405.1,122.02,405.1,118.9z M406.88,118.9c0,2.15,1.75,3.89,3.89,3.89c2.15,0,3.89-1.75,3.89-3.89c0-2.15-1.75-3.89-3.89-3.89
					C408.63,115.01,406.88,116.75,406.88,118.9z"/>
			</g>
			<g>
				<g>
					<g>
						<g>
							<g>
								<path class="st4" d="M388.54,165.52c0.49,0,0.89-0.4,0.89-0.89v-3.92c0-0.49-0.4-0.89-0.89-0.89c-0.49,0-0.89,0.4-0.89,0.89
									v3.92C387.65,165.13,388.05,165.52,388.54,165.52z"/>
							</g>
						</g>
						<g>
							<g>
								<path class="st4" d="M388.54,172.39c0.49,0,0.89-0.4,0.89-0.89v-3.92c0-0.49-0.4-0.89-0.89-0.89c-0.49,0-0.89,0.4-0.89,0.89
									v3.92C387.65,171.99,388.05,172.39,388.54,172.39z"/>
							</g>
						</g>
					</g>
					<g>
						<g>
							<g>
								<path class="st4" d="M383.03,166.99h3.52c0.49,0,0.89-0.4,0.89-0.89c0-0.49-0.4-0.89-0.89-0.89h-3.52
									c-0.49,0-0.89,0.4-0.89,0.89C382.14,166.6,382.54,166.99,383.03,166.99z"/>
							</g>
						</g>
						<g>
							<g>
								<path class="st4" d="M390.52,166.99h3.52c0.49,0,0.89-0.4,0.89-0.89c0-0.49-0.4-0.89-0.89-0.89h-3.52
									c-0.49,0-0.89,0.4-0.89,0.89C389.63,166.6,390.03,166.99,390.52,166.99z"/>
							</g>
						</g>
					</g>
				</g>
			</g>
			<g>
				<g>
					<g>
						<g>
							<path class="st4" d="M429.37,137.41c0.49,0,0.89-0.4,0.89-0.89v-3.92c0-0.49-0.4-0.89-0.89-0.89s-0.89,0.4-0.89,0.89v3.92
								C428.48,137.02,428.87,137.41,429.37,137.41z"/>
						</g>
						<g>
							<path class="st4" d="M429.37,144.28c0.49,0,0.89-0.4,0.89-0.89v-3.92c0-0.49-0.4-0.89-0.89-0.89s-0.89,0.4-0.89,0.89v3.92
								C428.48,143.88,428.87,144.28,429.37,144.28z"/>
						</g>
					</g>
					<g>
						<g>
							<path class="st4" d="M423.86,138.89h3.52c0.49,0,0.89-0.4,0.89-0.89c0-0.49-0.4-0.89-0.89-0.89h-3.52
								c-0.49,0-0.89,0.4-0.89,0.89C422.97,138.49,423.37,138.89,423.86,138.89z"/>
						</g>
						<g>
							<path class="st4" d="M431.35,138.89h3.52c0.49,0,0.89-0.4,0.89-0.89c0-0.49-0.4-0.89-0.89-0.89h-3.52
								c-0.49,0-0.89,0.4-0.89,0.89C430.46,138.49,430.86,138.89,431.35,138.89z"/>
						</g>
					</g>
				</g>
			</g>
		</g>
		<g>
			<g>
				<path class="st3" d="M75.04,149.3c0-3.13,2.54-5.67,5.67-5.67c3.13,0,5.67,2.54,5.67,5.67c0,3.13-2.54,5.67-5.67,5.67
					C77.58,154.97,75.04,152.43,75.04,149.3z M76.82,149.3c0,2.15,1.75,3.89,3.89,3.89s3.89-1.75,3.89-3.89
					c0-2.15-1.75-3.89-3.89-3.89S76.82,147.16,76.82,149.3z"/>
			</g>
			<g>
				<path class="st4" d="M54.42,191.51c0-3.13,2.54-5.67,5.67-5.67s5.67,2.54,5.67,5.67c0,3.13-2.54,5.67-5.67,5.67
					S54.42,194.64,54.42,191.51z M56.2,191.51c0,2.15,1.75,3.89,3.89,3.89c2.15,0,3.89-1.75,3.89-3.89c0-2.15-1.75-3.89-3.89-3.89
					C57.94,187.62,56.2,189.37,56.2,191.51z"/>
			</g>
			<g>
				<g>
					<g>
						<path class="st3" d="M75.04,174.1c0.49,0,0.89-0.4,0.89-0.89v-3.92c0-0.49-0.4-0.89-0.89-0.89c-0.49,0-0.89,0.4-0.89,0.89
							v3.92C74.15,173.7,74.55,174.1,75.04,174.1z"/>
					</g>
					<g>
						<path class="st3" d="M75.04,180.97c0.49,0,0.89-0.4,0.89-0.89v-3.92c0-0.49-0.4-0.89-0.89-0.89c-0.49,0-0.89,0.4-0.89,0.89
							v3.92C74.15,180.57,74.55,180.97,75.04,180.97z"/>
					</g>
				</g>
				<g>
					<g>
						<path class="st3" d="M69.53,175.57h3.52c0.49,0,0.89-0.4,0.89-0.89c0-0.49-0.4-0.89-0.89-0.89h-3.52
							c-0.49,0-0.89,0.4-0.89,0.89C68.64,175.18,69.04,175.57,69.53,175.57z"/>
					</g>
					<g>
						<path class="st3" d="M77.02,175.57h3.52c0.49,0,0.89-0.4,0.89-0.89c0-0.49-0.4-0.89-0.89-0.89h-3.52
							c-0.49,0-0.89,0.4-0.89,0.89C76.13,175.18,76.53,175.57,77.02,175.57z"/>
					</g>
				</g>
			</g>
			<g>
				<g>
					<g>
						<g>
							<path class="st4" d="M64.73,134.55c0.49,0,0.89-0.4,0.89-0.89v-3.92c0-0.49-0.4-0.89-0.89-0.89c-0.49,0-0.89,0.4-0.89,0.89
								v3.92C63.84,134.15,64.24,134.55,64.73,134.55z"/>
						</g>
						<g>
							<path class="st4" d="M64.73,141.42c0.49,0,0.89-0.4,0.89-0.89v-3.92c0-0.49-0.4-0.89-0.89-0.89c-0.49,0-0.89,0.4-0.89,0.89
								v3.92C63.84,141.02,64.24,141.42,64.73,141.42z"/>
						</g>
					</g>
					<g>
						<g>
							<path class="st4" d="M59.22,136.02h3.52c0.49,0,0.89-0.4,0.89-0.89c0-0.49-0.4-0.89-0.89-0.89h-3.52
								c-0.49,0-0.89,0.4-0.89,0.89C58.33,135.62,58.73,136.02,59.22,136.02z"/>
						</g>
						<g>
							<path class="st4" d="M66.71,136.02h3.52c0.49,0,0.89-0.4,0.89-0.89c0-0.49-0.4-0.89-0.89-0.89h-3.52
								c-0.49,0-0.89,0.4-0.89,0.89C65.82,135.62,66.22,136.02,66.71,136.02z"/>
						</g>
					</g>
				</g>
			</g>
		</g>
	</g>
	<g>
		<g>
			<polygon class="st4" points="440.39,438.27 360.13,438.27 371.18,348.95 429.34,348.95 			"/>
			<g>
				<path class="st16" d="M390.23,353.42c0,1.51-1.23,2.74-2.74,2.74c-1.51,0-2.74-1.23-2.74-2.74c0-1.51,1.23-2.74,2.74-2.74
					C389,350.68,390.23,351.91,390.23,353.42z"/>
				<path class="st16" d="M418.28,353.42c0,1.51-1.23,2.74-2.74,2.74c-1.51,0-2.74-1.23-2.74-2.74c0-1.51,1.23-2.74,2.74-2.74
					C417.05,350.68,418.28,351.91,418.28,353.42z"/>
				<g>
					<path class="st7" d="M387.56,353.1L387.56,353.1c-0.64-0.02-1.14-0.56-1.11-1.2c0.14-2.78,0.63-10.13,2.14-17.4
						c2.66-12.79,7.12-19.27,13.24-19.27c6.13,0,10.47,6.49,12.9,19.29c1.38,7.27,1.73,14.61,1.82,17.4
						c0.02,0.64-0.49,1.17-1.13,1.18l0,0c-0.63,0.01-1.14-0.49-1.15-1.11c-0.26-10.58-2.85-34.46-12.43-34.46
						c-9.6,0-12.64,23.89-13.09,34.48C388.7,352.63,388.18,353.12,387.56,353.1z"/>
				</g>
			</g>
		</g>
		<g>
			<polygon class="st3" points="434.23,445.17 311.76,445.17 323.04,387.84 422.95,387.84 			"/>
			<g>
				<g>
					<path class="st1" d="M351.52,393.04c0,1.51-1.23,2.74-2.74,2.74c-1.51,0-2.74-1.23-2.74-2.74c0-1.51,1.23-2.74,2.74-2.74
						C350.3,390.3,351.52,391.53,351.52,393.04z"/>
					<path class="st1" d="M399.33,393.04c0,1.51-1.23,2.74-2.74,2.74c-1.51,0-2.74-1.23-2.74-2.74c0-1.51,1.23-2.74,2.74-2.74
						C398.1,390.3,399.33,391.53,399.33,393.04z"/>
				</g>
				<g>
					<path class="st7" d="M348.76,392.72L348.76,392.72c-0.74-0.02-1.3-0.65-1.24-1.38c0.22-2.42,0.94-7.73,3.36-13.1
						c4.33-9.63,11.99-14.71,22.16-14.71c10.18,0,17.71,5.1,21.78,14.74c2.27,5.37,2.84,10.68,2.99,13.11
						c0.04,0.73-0.54,1.35-1.28,1.35l0,0c-0.67,0-1.23-0.53-1.27-1.2c-0.14-2.25-0.7-7.33-2.82-12.33
						c-3.69-8.7-10.22-13.12-19.4-13.12c-9.22,0-15.89,4.45-19.84,13.21c-2.25,5-2.94,10.04-3.14,12.28
						C350,392.23,349.43,392.74,348.76,392.72z"/>
				</g>
			</g>
		</g>
		<g>
			<rect x="151.77" y="395.3" class="st3" width="68.14" height="51.76"/>
			<rect x="149.51" y="392.72" class="st17" width="72.66" height="8.61"/>
			<rect x="151.77" y="401.33" class="st1" width="68.14" height="4.74"/>
			<rect x="182.85" y="392.72" class="st7" width="5.97" height="54.39"/>
			<rect x="182.86" y="405.75" class="st18" width="5.97" height="41.36"/>
			<rect x="182.86" y="401.33" class="st19" width="5.97" height="4.74"/>
		</g>
	</g>
</g>
<g id="DESIGNED_BY_FREEPIK">
</g>
</svg>
